G04*
G04 #@! TF.GenerationSoftware,Altium Limited,Altium Designer,24.9.1 (31)*
G04*
G04 Layer_Color=8388736*
%FSLAX44Y44*%
%MOMM*%
G71*
G04*
G04 #@! TF.SameCoordinates,B23FE003-D99D-4249-9A33-D1736BEC5A34*
G04*
G04*
G04 #@! TF.FilePolarity,Negative*
G04*
G01*
G75*
%ADD14R,0.9500X1.4000*%
G04:AMPARAMS|DCode=16|XSize=2.1692mm|YSize=0.5821mm|CornerRadius=0.2911mm|HoleSize=0mm|Usage=FLASHONLY|Rotation=0.000|XOffset=0mm|YOffset=0mm|HoleType=Round|Shape=RoundedRectangle|*
%AMROUNDEDRECTD16*
21,1,2.1692,0.0000,0,0,0.0*
21,1,1.5870,0.5821,0,0,0.0*
1,1,0.5821,0.7935,0.0000*
1,1,0.5821,-0.7935,0.0000*
1,1,0.5821,-0.7935,0.0000*
1,1,0.5821,0.7935,0.0000*
%
%ADD16ROUNDEDRECTD16*%
%ADD17R,2.1692X0.5821*%
%ADD18R,1.5000X0.9000*%
%ADD19R,0.9000X1.5000*%
%ADD20R,0.9000X0.9000*%
%ADD21R,0.7000X0.5000*%
%ADD22R,1.7000X0.8000*%
%ADD24R,1.1046X1.3562*%
%ADD25R,0.5654X0.5725*%
%ADD26R,1.5046X1.5562*%
%ADD27R,1.9032X1.1532*%
%ADD28R,1.5532X1.0532*%
%ADD29R,7.8232X7.8232*%
%ADD30C,2.1532*%
G04:AMPARAMS|DCode=31|XSize=2.1532mm|YSize=2.1532mm|CornerRadius=0.5891mm|HoleSize=0mm|Usage=FLASHONLY|Rotation=270.000|XOffset=0mm|YOffset=0mm|HoleType=Round|Shape=RoundedRectangle|*
%AMROUNDEDRECTD31*
21,1,2.1532,0.9750,0,0,270.0*
21,1,0.9750,2.1532,0,0,270.0*
1,1,1.1782,-0.4875,-0.4875*
1,1,1.1782,-0.4875,0.4875*
1,1,1.1782,0.4875,0.4875*
1,1,1.1782,0.4875,-0.4875*
%
%ADD31ROUNDEDRECTD31*%
%ADD32R,1.7532X1.7532*%
%ADD33C,1.7532*%
D14*
X158390Y113030D02*
D03*
X176890D02*
D03*
X159660Y74930D02*
D03*
X178160D02*
D03*
X431080Y106680D02*
D03*
X449580D02*
D03*
X365400Y381000D02*
D03*
X383900D02*
D03*
X236580Y382270D02*
D03*
X218080D02*
D03*
X401680Y551180D02*
D03*
X383180D02*
D03*
X218800D02*
D03*
X200300D02*
D03*
D16*
X381000Y516890D02*
D03*
Y504190D02*
D03*
Y491490D02*
D03*
Y478790D02*
D03*
X333728D02*
D03*
Y491490D02*
D03*
Y504190D02*
D03*
X225284Y480060D02*
D03*
Y492760D02*
D03*
Y505460D02*
D03*
Y518160D02*
D03*
X272556D02*
D03*
Y505460D02*
D03*
Y492760D02*
D03*
D17*
X333728Y516890D02*
D03*
X272556Y480060D02*
D03*
D18*
X377060Y123930D02*
D03*
Y136630D02*
D03*
Y149330D02*
D03*
Y162030D02*
D03*
Y174730D02*
D03*
Y187430D02*
D03*
X377060Y200130D02*
D03*
X377060Y212830D02*
D03*
Y225530D02*
D03*
Y238230D02*
D03*
Y250930D02*
D03*
Y263630D02*
D03*
Y276330D02*
D03*
Y289030D02*
D03*
X202060D02*
D03*
Y276330D02*
D03*
Y263630D02*
D03*
Y250930D02*
D03*
Y238230D02*
D03*
Y225530D02*
D03*
Y212830D02*
D03*
X202060Y200130D02*
D03*
X202060Y187430D02*
D03*
Y174730D02*
D03*
Y162030D02*
D03*
Y149330D02*
D03*
X202060Y136630D02*
D03*
X202060Y123930D02*
D03*
D19*
X346660Y301530D02*
D03*
X333960D02*
D03*
X321260D02*
D03*
X308560D02*
D03*
X295860D02*
D03*
X283160D02*
D03*
X270460D02*
D03*
X257760D02*
D03*
X245060D02*
D03*
X232360D02*
D03*
D20*
X318560Y187130D02*
D03*
X304560Y187130D02*
D03*
X290560D02*
D03*
X318560Y201130D02*
D03*
X304560D02*
D03*
X290560Y201130D02*
D03*
X318560Y215130D02*
D03*
X304560D02*
D03*
X290560D02*
D03*
D21*
X146050Y330200D02*
D03*
X155050D02*
D03*
X451430Y322580D02*
D03*
X460430D02*
D03*
D22*
X337820Y414510D02*
D03*
Y380510D02*
D03*
X264160Y413240D02*
D03*
Y379240D02*
D03*
D24*
X401320Y72390D02*
D03*
X415336D02*
D03*
D25*
X236764Y323850D02*
D03*
X245836D02*
D03*
X226604Y410210D02*
D03*
X235676D02*
D03*
X366304Y414020D02*
D03*
X375376D02*
D03*
D26*
X353178Y552450D02*
D03*
X335162D02*
D03*
X265548D02*
D03*
X247532D02*
D03*
D27*
X414020Y503970D02*
D03*
Y476470D02*
D03*
X482600Y350300D02*
D03*
Y322800D02*
D03*
X189230Y506510D02*
D03*
Y479010D02*
D03*
X118110Y329150D02*
D03*
Y356650D02*
D03*
D28*
X109220Y167000D02*
D03*
Y150500D02*
D03*
Y193680D02*
D03*
Y210180D02*
D03*
D29*
X86360Y678180D02*
D03*
Y40640D02*
D03*
X541020Y678180D02*
D03*
X541020Y40640D02*
D03*
D30*
X110570Y460543D02*
D03*
X110570Y510542D02*
D03*
X506730Y557530D02*
D03*
X506730Y507530D02*
D03*
D31*
X110570Y560542D02*
D03*
X506730Y457530D02*
D03*
D32*
X81280Y144780D02*
D03*
X519430Y267970D02*
D03*
D33*
X81280Y170180D02*
D03*
Y195580D02*
D03*
Y220980D02*
D03*
Y246380D02*
D03*
Y271780D02*
D03*
X519430Y242570D02*
D03*
Y217170D02*
D03*
Y191770D02*
D03*
Y166370D02*
D03*
Y140970D02*
D03*
M02*
