G04*
G04 #@! TF.GenerationSoftware,Altium Limited,Altium Designer,24.9.1 (31)*
G04*
G04 Layer_Physical_Order=4*
G04 Layer_Color=16711680*
%FSLAX44Y44*%
%MOMM*%
G71*
G04*
G04 #@! TF.SameCoordinates,B23FE003-D99D-4249-9A33-D1736BEC5A34*
G04*
G04*
G04 #@! TF.FilePolarity,Positive*
G04*
G01*
G75*
%ADD34C,0.2540*%
%ADD35R,7.6200X7.6200*%
%ADD36C,1.9500*%
G04:AMPARAMS|DCode=37|XSize=1.95mm|YSize=1.95mm|CornerRadius=0.4875mm|HoleSize=0mm|Usage=FLASHONLY|Rotation=270.000|XOffset=0mm|YOffset=0mm|HoleType=Round|Shape=RoundedRectangle|*
%AMROUNDEDRECTD37*
21,1,1.9500,0.9750,0,0,270.0*
21,1,0.9750,1.9500,0,0,270.0*
1,1,0.9750,-0.4875,-0.4875*
1,1,0.9750,-0.4875,0.4875*
1,1,0.9750,0.4875,0.4875*
1,1,0.9750,0.4875,-0.4875*
%
%ADD37ROUNDEDRECTD37*%
%ADD38R,1.5500X1.5500*%
%ADD39C,1.5500*%
%ADD40C,0.8890*%
D34*
X223520Y212090D02*
X237490D01*
X222250D02*
X223520D01*
X195580Y439420D02*
X255270D01*
X279550Y463700D01*
X361950Y170180D02*
X398780D01*
X334010Y142240D02*
X361950Y170180D01*
X373380Y193040D02*
X398780D01*
X398780Y193040D01*
X397565Y218385D02*
X398780Y217170D01*
X394117Y218440D02*
X394172Y218385D01*
X397565D01*
X384810Y218440D02*
X394117D01*
X342900Y176530D02*
X384810Y218440D01*
X346710Y237490D02*
X397510D01*
X395483Y265365D02*
X397510Y263338D01*
Y261620D02*
Y263338D01*
X395483Y265365D02*
Y266187D01*
X342900Y318770D02*
X395483Y266187D01*
X177800Y247650D02*
X266700D01*
X224790Y142240D02*
X334010D01*
X237490Y212090D02*
X279400Y170180D01*
X350520D01*
X373380Y193040D01*
X224790Y223520D02*
X238760D01*
X285750Y176530D01*
X342900D01*
X327660Y318770D02*
X342900D01*
X140915Y189285D02*
X144352D01*
X145677Y187960D02*
X222224D01*
X139700Y190500D02*
X140915Y189285D01*
X144352D02*
X145677Y187960D01*
X398145Y291465D02*
X424180Y317500D01*
Y429260D01*
X355600Y497840D02*
X424180Y429260D01*
X313690Y281940D02*
Y283658D01*
X316230Y286198D02*
Y466398D01*
X313690Y283658D02*
X316230Y286198D01*
X226060Y238760D02*
X274320D01*
X303530Y267970D01*
Y499110D01*
X309880Y505460D01*
X187960Y325120D02*
Y337820D01*
X184150Y341630D02*
Y427990D01*
Y341630D02*
X187960Y337820D01*
X184150Y427990D02*
X195580Y439420D01*
X179070Y289122D02*
Y433070D01*
X264160Y518160D01*
X295910D01*
D35*
X86360Y678180D02*
D03*
Y40640D02*
D03*
X541020Y678180D02*
D03*
X541020Y40640D02*
D03*
D36*
X110570Y460543D02*
D03*
X110570Y510542D02*
D03*
X506730Y557530D02*
D03*
X506730Y507530D02*
D03*
D37*
X110570Y560542D02*
D03*
X506730Y457530D02*
D03*
D38*
X81280Y144780D02*
D03*
X519430Y267970D02*
D03*
D39*
X81280Y170180D02*
D03*
Y195580D02*
D03*
Y220980D02*
D03*
Y246380D02*
D03*
Y271780D02*
D03*
X519430Y242570D02*
D03*
Y217170D02*
D03*
Y191770D02*
D03*
Y166370D02*
D03*
Y140970D02*
D03*
D40*
X403860Y115570D02*
D03*
X132080Y151130D02*
D03*
X408940Y382270D02*
D03*
X346710Y285750D02*
D03*
X398780Y170180D02*
D03*
Y193040D02*
D03*
Y217170D02*
D03*
X397510Y237490D02*
D03*
Y261620D02*
D03*
X346710Y237490D02*
D03*
X266700Y247650D02*
D03*
X177800D02*
D03*
X223520Y212090D02*
D03*
X222250Y223520D02*
D03*
X224790Y142240D02*
D03*
X327660Y318770D02*
D03*
X337820Y431800D02*
D03*
X264160Y429260D02*
D03*
X400050Y139700D02*
D03*
X224790Y124460D02*
D03*
X296237Y517610D02*
D03*
X279400Y463550D02*
D03*
X222224Y187960D02*
D03*
X139700Y190500D02*
D03*
X398145Y291465D02*
D03*
X355600Y497840D02*
D03*
X316230Y466398D02*
D03*
X313690Y281940D02*
D03*
X226060Y238760D02*
D03*
X309880Y505460D02*
D03*
X187960Y325120D02*
D03*
X179070Y288290D02*
D03*
X129540Y208280D02*
D03*
X431800Y129540D02*
D03*
X449580D02*
D03*
X401320Y49530D02*
D03*
X179070Y54610D02*
D03*
X141654Y76008D02*
D03*
X140970Y113030D02*
D03*
X176530Y133350D02*
D03*
X434340Y73660D02*
D03*
X246380Y342900D02*
D03*
X96520Y355600D02*
D03*
X505460Y351790D02*
D03*
X393700Y414020D02*
D03*
X196850Y382270D02*
D03*
X209550Y410210D02*
D03*
X382270Y572770D02*
D03*
X358140Y478790D02*
D03*
X359410Y516890D02*
D03*
X245110Y480060D02*
D03*
X243840Y518160D02*
D03*
X401320Y574040D02*
D03*
X353060Y577850D02*
D03*
X334010Y576580D02*
D03*
X265430Y579120D02*
D03*
X245110D02*
D03*
X218440Y575310D02*
D03*
X200660Y574040D02*
D03*
M02*
