M48
;Layer_Color=9474304
;FILE_FORMAT=4:4
METRIC,LZ
;TYPE=PLATED
T01F00S00C0.3810
T02F00S00C1.0200
T03F00S00C1.3000
T04F00S00C3.1750
%
T01
X00141654Y00076008
X0017907Y0005461
X0040132Y0004953
X0043434Y0007366
X0050546Y0035179
X0040894Y0038227
X003937Y0041402
X0033782Y004318
X0031623Y00466398
X002794Y0046355
X0026416Y0042926
X0024511Y0048006
X0020955Y0041021
X0019685Y0038227
X0018796Y0032512
X0017907Y0028829
X001778Y0024765
X0022606Y0023876
X0022225Y0022352
X0022352Y0021209
X00222224Y0018796
X0022479Y0014224
Y0012446
X0017653Y0013335
X0014097Y0011303
X0013208Y0015113
X001397Y001905
X0012954Y0020828
X002667Y0024765
X0031369Y0028194
X0034671Y0028575
Y0023749
X0039751
X0039878Y0021717
Y0019304
Y0017018
X0040005Y001397
X0040386Y0011557
X004318Y0012954
X0044958
X0039751Y0026162
X00398145Y00291465
X0032766Y0031877
X0024638Y003429
X0035814Y0047879
X0009652Y003556
X0024384Y0051816
X00296237Y0051761
X0030988Y0050546
X003556Y0049784
X0035941Y0051689
X0035306Y0057785
X0033401Y0057658
X0038227Y0057277
X0040132Y0057404
X0026543Y0057912
X0024511
X0021844Y0057531
X0020066Y0057404
T02
X0051943Y0014097
Y0016637
Y0019177
Y0021717
Y0024257
Y0026797
X0008128Y0027178
Y0024638
Y0022098
Y0019558
Y0017018
Y0014478
T03
X0050673Y0045753
X0011057Y00460543
X0011057Y00510542
Y00560542
X0050673Y0055753
X0050673Y0050753
T04
X0008636Y0004064
X0054102Y0004064
X0008636Y0067818
X0054102
M30
