G04*
G04 #@! TF.GenerationSoftware,Altium Limited,Altium Designer,24.9.1 (31)*
G04*
G04 Layer_Physical_Order=2*
G04 Layer_Color=8242323*
%FSLAX44Y44*%
%MOMM*%
G71*
G04*
G04 #@! TF.SameCoordinates,B23FE003-D99D-4249-9A33-D1736BEC5A34*
G04*
G04*
G04 #@! TF.FilePolarity,Negative*
G04*
G01*
G75*
%ADD41C,1.0160*%
%ADD42C,4.1910*%
%ADD43C,2.3160*%
%ADD44C,2.0360*%
G04:AMPARAMS|DCode=45|XSize=2.544mm|YSize=2.544mm|CornerRadius=0mm|HoleSize=0mm|Usage=FLASHONLY|Rotation=0.000|XOffset=0mm|YOffset=0mm|HoleType=Round|Shape=Relief|Width=0.254mm|Gap=0.254mm|Entries=4|*
%AMTHD45*
7,0,0,2.5440,2.0360,0.2540,45*
%
%ADD45THD45*%
%ADD46C,1.3970*%
G04:AMPARAMS|DCode=47|XSize=1.905mm|YSize=1.905mm|CornerRadius=0mm|HoleSize=0mm|Usage=FLASHONLY|Rotation=0.000|XOffset=0mm|YOffset=0mm|HoleType=Round|Shape=Relief|Width=0.254mm|Gap=0.254mm|Entries=4|*
%AMTHD47*
7,0,0,1.9050,1.3970,0.2540,45*
%
%ADD47THD47*%
D41*
X44446Y0D02*
G03*
X45720Y-1274I1274J0D01*
G01*
X581649Y-1274D02*
G03*
X582934Y0I11J1274D01*
G01*
X45720Y720094D02*
G03*
X44446Y718820I0J-1274D01*
G01*
X582934D02*
G03*
X581660Y720094I-1274J0D01*
G01*
X45720Y-1274D02*
X581649D01*
X582934Y718820D02*
X582934Y0D01*
X45720Y720094D02*
X581660D01*
X44446Y577850D02*
Y718820D01*
Y577850D02*
X44446Y577839D01*
X44446Y12700D02*
X44446Y577839D01*
X44446Y0D02*
Y12700D01*
D42*
X86360Y678180D02*
D03*
Y40640D02*
D03*
X541020Y678180D02*
D03*
X541020Y40640D02*
D03*
D43*
X110570Y460543D02*
D03*
X110570Y560542D02*
D03*
Y510542D02*
D03*
X506730Y557530D02*
D03*
X506730Y457530D02*
D03*
Y507530D02*
D03*
D44*
X81280Y144780D02*
D03*
Y170180D02*
D03*
Y195580D02*
D03*
Y220980D02*
D03*
Y246380D02*
D03*
X519430Y267970D02*
D03*
Y242570D02*
D03*
Y217170D02*
D03*
Y191770D02*
D03*
Y166370D02*
D03*
D45*
X81280Y271780D02*
D03*
X519430Y140970D02*
D03*
D46*
X403860Y115570D02*
D03*
X408940Y382270D02*
D03*
X346710Y285750D02*
D03*
X398780Y170180D02*
D03*
Y193040D02*
D03*
Y217170D02*
D03*
X397510Y237490D02*
D03*
Y261620D02*
D03*
X346710Y237490D02*
D03*
X266700Y247650D02*
D03*
X177800D02*
D03*
X223520Y212090D02*
D03*
X222250Y223520D02*
D03*
X224790Y142240D02*
D03*
X327660Y318770D02*
D03*
X337820Y431800D02*
D03*
X264160Y429260D02*
D03*
X224790Y124460D02*
D03*
X296237Y517610D02*
D03*
X279400Y463550D02*
D03*
X222224Y187960D02*
D03*
X139700Y190500D02*
D03*
X398145Y291465D02*
D03*
X355600Y497840D02*
D03*
X316230Y466398D02*
D03*
X313690Y281940D02*
D03*
X226060Y238760D02*
D03*
X309880Y505460D02*
D03*
X187960Y325120D02*
D03*
X179070Y288290D02*
D03*
X449580Y129540D02*
D03*
X179070Y54610D02*
D03*
X176530Y133350D02*
D03*
X434340Y73660D02*
D03*
X246380Y342900D02*
D03*
X96520Y355600D02*
D03*
X505460Y351790D02*
D03*
X196850Y382270D02*
D03*
X382270Y572770D02*
D03*
X358140Y478790D02*
D03*
X243840Y518160D02*
D03*
X334010Y576580D02*
D03*
X245110Y579120D02*
D03*
X200660Y574040D02*
D03*
D47*
X132080Y151130D02*
D03*
X400050Y139700D02*
D03*
X129540Y208280D02*
D03*
X431800Y129540D02*
D03*
X401320Y49530D02*
D03*
X141654Y76008D02*
D03*
X140970Y113030D02*
D03*
X393700Y414020D02*
D03*
X209550Y410210D02*
D03*
X359410Y516890D02*
D03*
X245110Y480060D02*
D03*
X401320Y574040D02*
D03*
X353060Y577850D02*
D03*
X265430Y579120D02*
D03*
X218440Y575310D02*
D03*
M02*
