G04*
G04 #@! TF.GenerationSoftware,Altium Limited,Altium Designer,24.9.1 (31)*
G04*
G04 Layer_Physical_Order=1*
G04 Layer_Color=255*
%FSLAX44Y44*%
%MOMM*%
G71*
G04*
G04 #@! TF.SameCoordinates,B23FE003-D99D-4249-9A33-D1736BEC5A34*
G04*
G04*
G04 #@! TF.FilePolarity,Positive*
G04*
G01*
G75*
%ADD14R,0.9500X1.4000*%
%ADD15R,1.7000X0.9500*%
G04:AMPARAMS|DCode=16|XSize=2.1692mm|YSize=0.5821mm|CornerRadius=0.2911mm|HoleSize=0mm|Usage=FLASHONLY|Rotation=0.000|XOffset=0mm|YOffset=0mm|HoleType=Round|Shape=RoundedRectangle|*
%AMROUNDEDRECTD16*
21,1,2.1692,0.0000,0,0,0.0*
21,1,1.5870,0.5821,0,0,0.0*
1,1,0.5821,0.7935,0.0000*
1,1,0.5821,-0.7935,0.0000*
1,1,0.5821,-0.7935,0.0000*
1,1,0.5821,0.7935,0.0000*
%
%ADD16ROUNDEDRECTD16*%
%ADD17R,2.1692X0.5821*%
%ADD18R,1.5000X0.9000*%
%ADD19R,0.9000X1.5000*%
%ADD20R,0.9000X0.9000*%
%ADD21R,0.7000X0.5000*%
%ADD22R,1.7000X0.8000*%
%ADD23R,1.3500X0.8500*%
%ADD24R,1.1046X1.3562*%
%ADD25R,0.5654X0.5725*%
%ADD26R,1.5046X1.5562*%
%ADD34C,0.2540*%
%ADD35R,7.6200X7.6200*%
%ADD36C,1.9500*%
G04:AMPARAMS|DCode=37|XSize=1.95mm|YSize=1.95mm|CornerRadius=0.4875mm|HoleSize=0mm|Usage=FLASHONLY|Rotation=270.000|XOffset=0mm|YOffset=0mm|HoleType=Round|Shape=RoundedRectangle|*
%AMROUNDEDRECTD37*
21,1,1.9500,0.9750,0,0,270.0*
21,1,0.9750,1.9500,0,0,270.0*
1,1,0.9750,-0.4875,-0.4875*
1,1,0.9750,-0.4875,0.4875*
1,1,0.9750,0.4875,0.4875*
1,1,0.9750,0.4875,-0.4875*
%
%ADD37ROUNDEDRECTD37*%
%ADD38R,1.5500X1.5500*%
%ADD39C,1.5500*%
%ADD40C,0.8890*%
D14*
X158390Y113030D02*
D03*
X176890D02*
D03*
X159660Y74930D02*
D03*
X178160D02*
D03*
X431080Y106680D02*
D03*
X449580D02*
D03*
X365400Y381000D02*
D03*
X383900D02*
D03*
X236580Y382270D02*
D03*
X218080D02*
D03*
X401680Y551180D02*
D03*
X383180D02*
D03*
X218800D02*
D03*
X200300D02*
D03*
D15*
X414020Y503970D02*
D03*
Y476470D02*
D03*
X482600Y350300D02*
D03*
Y322800D02*
D03*
X189230Y506510D02*
D03*
Y479010D02*
D03*
X118110Y329150D02*
D03*
Y356650D02*
D03*
D16*
X381000Y516890D02*
D03*
Y504190D02*
D03*
Y491490D02*
D03*
Y478790D02*
D03*
X333728D02*
D03*
Y491490D02*
D03*
Y504190D02*
D03*
X225284Y480060D02*
D03*
Y492760D02*
D03*
Y505460D02*
D03*
Y518160D02*
D03*
X272556D02*
D03*
Y505460D02*
D03*
Y492760D02*
D03*
D17*
X333728Y516890D02*
D03*
X272556Y480060D02*
D03*
D18*
X377060Y123930D02*
D03*
Y136630D02*
D03*
Y149330D02*
D03*
Y162030D02*
D03*
Y174730D02*
D03*
Y187430D02*
D03*
X377060Y200130D02*
D03*
X377060Y212830D02*
D03*
Y225530D02*
D03*
Y238230D02*
D03*
Y250930D02*
D03*
Y263630D02*
D03*
Y276330D02*
D03*
Y289030D02*
D03*
X202060D02*
D03*
Y276330D02*
D03*
Y263630D02*
D03*
Y250930D02*
D03*
Y238230D02*
D03*
Y225530D02*
D03*
Y212830D02*
D03*
X202060Y200130D02*
D03*
X202060Y187430D02*
D03*
Y174730D02*
D03*
Y162030D02*
D03*
Y149330D02*
D03*
X202060Y136630D02*
D03*
X202060Y123930D02*
D03*
D19*
X346660Y301530D02*
D03*
X333960D02*
D03*
X321260D02*
D03*
X308560D02*
D03*
X295860D02*
D03*
X283160D02*
D03*
X270460D02*
D03*
X257760D02*
D03*
X245060D02*
D03*
X232360D02*
D03*
D20*
X318560Y187130D02*
D03*
X304560Y187130D02*
D03*
X290560D02*
D03*
X318560Y201130D02*
D03*
X304560D02*
D03*
X290560Y201130D02*
D03*
X318560Y215130D02*
D03*
X304560D02*
D03*
X290560D02*
D03*
D21*
X146050Y330200D02*
D03*
X155050D02*
D03*
X451430Y322580D02*
D03*
X460430D02*
D03*
D22*
X337820Y414510D02*
D03*
Y380510D02*
D03*
X264160Y413240D02*
D03*
Y379240D02*
D03*
D23*
X109220Y167000D02*
D03*
Y150500D02*
D03*
Y193680D02*
D03*
Y210180D02*
D03*
D24*
X401320Y72390D02*
D03*
X415336D02*
D03*
D25*
X236764Y323850D02*
D03*
X245836D02*
D03*
X226604Y410210D02*
D03*
X235676D02*
D03*
X366304Y414020D02*
D03*
X375376D02*
D03*
D26*
X353178Y552450D02*
D03*
X335162D02*
D03*
X265548D02*
D03*
X247532D02*
D03*
D34*
X415290Y243840D02*
X519430D01*
X401768Y218440D02*
X519430D01*
X398780Y193040D02*
X519430D01*
X377060Y124460D02*
X397062D01*
X403860Y115570D02*
Y117288D01*
X401609Y119540D02*
Y119913D01*
X375802Y124460D02*
X377060D01*
X401609Y119540D02*
X403860Y117288D01*
X397062Y124460D02*
X401609Y119913D01*
X110570Y560542D02*
X153198D01*
X166370Y547370D01*
X152398Y510542D02*
X165100Y497840D01*
X110570Y510542D02*
X152398D01*
X226060Y491490D02*
X227330Y492760D01*
X212090Y491490D02*
X226060D01*
X171450Y478790D02*
X203200D01*
X140970Y113030D02*
X158390D01*
X109220Y150500D02*
X131450D01*
X132080Y151130D01*
X385962Y382270D02*
X408940D01*
X383422Y384810D02*
X385962Y382270D01*
X481212Y351790D02*
X505460D01*
X381000Y478790D02*
X382388D01*
X358140D02*
X381000D01*
X382270Y551062D02*
Y572770D01*
X334010Y552332D02*
Y576580D01*
X346710Y285750D02*
Y301530D01*
X337820Y414510D02*
Y431800D01*
Y413902D02*
Y414510D01*
X449580Y106680D02*
Y129540D01*
Y106562D02*
Y106680D01*
X415172Y73660D02*
X434340D01*
X328930Y123190D02*
X377060D01*
X316200Y214660D02*
X317500Y213360D01*
Y201990D02*
X318830Y200660D01*
X304830Y186660D02*
X318830D01*
X225284Y518160D02*
X243840D01*
X219592D02*
X225284D01*
X264160Y413240D02*
Y429260D01*
Y412632D02*
Y413240D01*
X289560Y217170D02*
X302320D01*
X246380Y323732D02*
Y342900D01*
X200660Y549792D02*
Y574040D01*
X302320Y217170D02*
X304830Y214660D01*
X290830Y215130D02*
Y215900D01*
Y187130D02*
Y215130D01*
X304830Y200660D02*
X318830D01*
X304830Y186660D02*
Y200660D01*
X290830Y186660D02*
Y187130D01*
X200542Y124460D02*
X224790D01*
X398780Y170180D02*
X400498D01*
X403038Y167640D02*
X516890D01*
X400498Y170180D02*
X403038Y167640D01*
X398780Y193040D02*
X398780Y193040D01*
X400498Y217170D02*
X401768Y218440D01*
X398780Y217170D02*
X400498D01*
X377800Y237490D02*
X397510D01*
Y261620D02*
X415290Y243840D01*
X377060Y238230D02*
X377800Y237490D01*
X336550Y247650D02*
X346710Y237490D01*
X266700Y247650D02*
X336550D01*
X168910Y256540D02*
X177800Y247650D01*
X202060Y136630D02*
X211560D01*
X217170Y142240D01*
X224790D01*
X202800Y212090D02*
X223520D01*
X204070Y223520D02*
X222250D01*
X259408Y318770D02*
X327660D01*
X245060Y304530D02*
X248290Y307760D01*
X249232D01*
X250720Y310082D02*
X259408Y318770D01*
X245060Y301530D02*
Y304530D01*
X249232Y307760D02*
X250720Y309248D01*
Y310082D01*
X294640Y378460D02*
X336550Y336550D01*
X333960Y301530D02*
X336550Y304120D01*
Y336550D01*
X294640Y378460D02*
Y486410D01*
X165100Y330200D02*
X168910Y326390D01*
Y256540D02*
Y326390D01*
X155050Y330200D02*
X165100D01*
X365760Y386080D02*
Y414020D01*
X369570Y373670D02*
Y382270D01*
X365760Y386080D02*
X369570Y382270D01*
X362730Y380510D02*
X369570Y373670D01*
Y316230D02*
Y373670D01*
X337820Y380510D02*
X362730D01*
X236220Y358140D02*
Y379240D01*
X264160D01*
X207010Y328930D02*
X236220Y358140D01*
X235676Y379240D02*
Y410210D01*
X398332Y139700D02*
X400050D01*
X379612Y137160D02*
X395792D01*
X398332Y139700D01*
X394970Y288290D02*
X398145Y291465D01*
X377190Y288290D02*
X394970D01*
X277759Y480060D02*
X279400Y478419D01*
X267970Y480060D02*
X277759D01*
X279400Y463550D02*
Y478419D01*
X201904Y187960D02*
X222224D01*
X334010Y497840D02*
X355600D01*
X333122Y478184D02*
X333728Y478790D01*
X316506Y472716D02*
X321974Y478184D01*
X316230Y466398D02*
X316506Y466675D01*
X321974Y478184D02*
X333122D01*
X316506Y466675D02*
Y472716D01*
X308080Y276330D02*
X313690Y281940D01*
X202060Y276330D02*
X308080D01*
X365020Y149330D02*
X377060D01*
X358140Y156210D02*
X365020Y149330D01*
X358140Y156210D02*
Y304800D01*
X369570Y316230D01*
X308044Y503624D02*
X320560Y516140D01*
X337070D01*
X338340Y517410D01*
X204470Y238760D02*
X226060D01*
X333728Y491490D02*
Y504190D01*
X192300Y263630D02*
X202060D01*
X187960Y267970D02*
X192300Y263630D01*
X187960Y267970D02*
Y325120D01*
X187220Y250930D02*
X202060D01*
X179070Y259080D02*
X187220Y250930D01*
X179070Y259080D02*
Y288290D01*
X271286Y518160D02*
X295910D01*
X202060Y289030D02*
X207010Y293980D01*
Y328930D01*
X288290Y492760D02*
X294640Y486410D01*
X271286Y492760D02*
X288290D01*
X271286D02*
Y505460D01*
X192990Y166420D02*
X194150Y165260D01*
X138430Y220980D02*
X190750Y168660D01*
Y168652D02*
X192982Y166420D01*
X192990D01*
X198830Y165260D02*
X202060Y162030D01*
X190750Y168652D02*
Y168660D01*
X81280Y220980D02*
X138430D01*
X194150Y165260D02*
X198830D01*
X200728Y176062D02*
X202060Y174730D01*
X121920Y246380D02*
X192238Y176062D01*
X200728D01*
X78740Y246380D02*
X121920D01*
X89248Y167000D02*
X167010D01*
X184150Y149860D01*
X88548Y167700D02*
X89248Y167000D01*
X81280Y170180D02*
X83760Y167700D01*
X88548D01*
X81280Y195580D02*
X83820Y193040D01*
X123190D01*
X124460Y191770D01*
X125730Y190500D01*
X139700D01*
X107832Y209550D02*
X126552D01*
X127822Y208280D02*
X129540D01*
X126552Y209550D02*
X127822Y208280D01*
X201530Y149860D02*
X202060Y149330D01*
X184150Y149860D02*
X201530D01*
X430530Y107832D02*
Y126552D01*
X431800Y127822D02*
Y129540D01*
X430530Y126552D02*
X431800Y127822D01*
X401320Y49530D02*
Y72508D01*
X377060Y123190D02*
X377330Y123460D01*
X318830Y133290D02*
X328930Y123190D01*
X318830Y133290D02*
Y186660D01*
X318830Y186660D02*
X318830Y186660D01*
X304830Y186660D02*
X304830Y186660D01*
X317500Y201990D02*
Y213360D01*
X304830Y214660D02*
X316200D01*
X289560Y217170D02*
X290830Y215900D01*
X179070Y54610D02*
Y73778D01*
X141654Y76008D02*
X160822D01*
X176530Y114182D02*
Y133350D01*
X232410Y301280D02*
X232630Y301060D01*
X232410Y301280D02*
Y312420D01*
X236764Y316774D01*
Y323850D01*
X145000Y329150D02*
X146050Y330200D01*
X118110Y329150D02*
X145000D01*
X96520Y355600D02*
X115688D01*
X377330Y275860D02*
X378330Y276860D01*
X414020D01*
X424180Y287020D01*
Y309880D01*
X436880Y322580D01*
X451430D01*
X458110Y322800D02*
X482600D01*
X377966Y491490D02*
X379236Y490220D01*
X394970D01*
X398780Y486410D01*
Y482600D02*
Y486410D01*
Y482600D02*
X406400Y474980D01*
X434340D01*
X451790Y457530D01*
X506730D01*
X377966Y504190D02*
X438150D01*
X441490Y507530D01*
X506730D01*
X374532Y414020D02*
X393700D01*
X196850Y382270D02*
X216018D01*
X209550Y410210D02*
X224908D01*
X359410Y516890D02*
X383658D01*
X220862Y480060D02*
X245110D01*
X401320Y549792D02*
Y574040D01*
X353060Y553602D02*
Y577850D01*
X265430Y554872D02*
Y579120D01*
X245110Y554872D02*
Y579120D01*
X218440Y551062D02*
Y575310D01*
X175260Y506730D02*
X227330D01*
X166370Y515620D02*
Y547370D01*
X165100Y485140D02*
Y497840D01*
X207010Y486410D02*
X212090Y491490D01*
X207010Y482600D02*
Y486410D01*
X203200Y478790D02*
X207010Y482600D01*
X165100Y485140D02*
X171450Y478790D01*
X166370Y515620D02*
X175260Y506730D01*
D35*
X86360Y678180D02*
D03*
Y40640D02*
D03*
X541020Y678180D02*
D03*
X541020Y40640D02*
D03*
D36*
X110570Y460543D02*
D03*
X110570Y510542D02*
D03*
X506730Y557530D02*
D03*
X506730Y507530D02*
D03*
D37*
X110570Y560542D02*
D03*
X506730Y457530D02*
D03*
D38*
X81280Y144780D02*
D03*
X519430Y267970D02*
D03*
D39*
X81280Y170180D02*
D03*
Y195580D02*
D03*
Y220980D02*
D03*
Y246380D02*
D03*
Y271780D02*
D03*
X519430Y242570D02*
D03*
Y217170D02*
D03*
Y191770D02*
D03*
Y166370D02*
D03*
Y140970D02*
D03*
D40*
X403860Y115570D02*
D03*
X132080Y151130D02*
D03*
X408940Y382270D02*
D03*
X346710Y285750D02*
D03*
X398780Y170180D02*
D03*
Y193040D02*
D03*
Y217170D02*
D03*
X397510Y237490D02*
D03*
Y261620D02*
D03*
X346710Y237490D02*
D03*
X266700Y247650D02*
D03*
X177800D02*
D03*
X223520Y212090D02*
D03*
X222250Y223520D02*
D03*
X224790Y142240D02*
D03*
X327660Y318770D02*
D03*
X337820Y431800D02*
D03*
X264160Y429260D02*
D03*
X400050Y139700D02*
D03*
X224790Y124460D02*
D03*
X296237Y517610D02*
D03*
X279400Y463550D02*
D03*
X222224Y187960D02*
D03*
X139700Y190500D02*
D03*
X398145Y291465D02*
D03*
X355600Y497840D02*
D03*
X316230Y466398D02*
D03*
X313690Y281940D02*
D03*
X226060Y238760D02*
D03*
X309880Y505460D02*
D03*
X187960Y325120D02*
D03*
X179070Y288290D02*
D03*
X129540Y208280D02*
D03*
X431800Y129540D02*
D03*
X449580D02*
D03*
X401320Y49530D02*
D03*
X179070Y54610D02*
D03*
X141654Y76008D02*
D03*
X140970Y113030D02*
D03*
X176530Y133350D02*
D03*
X434340Y73660D02*
D03*
X246380Y342900D02*
D03*
X96520Y355600D02*
D03*
X505460Y351790D02*
D03*
X393700Y414020D02*
D03*
X196850Y382270D02*
D03*
X209550Y410210D02*
D03*
X382270Y572770D02*
D03*
X358140Y478790D02*
D03*
X359410Y516890D02*
D03*
X245110Y480060D02*
D03*
X243840Y518160D02*
D03*
X401320Y574040D02*
D03*
X353060Y577850D02*
D03*
X334010Y576580D02*
D03*
X265430Y579120D02*
D03*
X245110D02*
D03*
X218440Y575310D02*
D03*
X200660Y574040D02*
D03*
M02*
