G04*
G04 #@! TF.GenerationSoftware,Altium Limited,Altium Designer,24.9.1 (31)*
G04*
G04 Layer_Physical_Order=1*
G04 Layer_Color=255*
%FSLAX44Y44*%
%MOMM*%
G71*
G04*
G04 #@! TF.SameCoordinates,6FF1A4AC-1349-41AC-8DD2-F97DD9D855A8*
G04*
G04*
G04 #@! TF.FilePolarity,Positive*
G04*
G01*
G75*
%ADD11C,0.2540*%
%ADD14R,1.5000X0.4500*%
%ADD15R,1.4000X0.9500*%
%ADD16R,1.3000X0.9000*%
%ADD21C,0.3810*%
%ADD22C,1.2700*%
%ADD23C,1.0160*%
%ADD24C,2.5400*%
G04:AMPARAMS|DCode=25|XSize=1.95mm|YSize=1.95mm|CornerRadius=0.4875mm|HoleSize=0mm|Usage=FLASHONLY|Rotation=0.000|XOffset=0mm|YOffset=0mm|HoleType=Round|Shape=RoundedRectangle|*
%AMROUNDEDRECTD25*
21,1,1.9500,0.9750,0,0,0.0*
21,1,0.9750,1.9500,0,0,0.0*
1,1,0.9750,0.4875,-0.4875*
1,1,0.9750,-0.4875,-0.4875*
1,1,0.9750,-0.4875,0.4875*
1,1,0.9750,0.4875,0.4875*
%
%ADD25ROUNDEDRECTD25*%
%ADD26C,1.9500*%
G04:AMPARAMS|DCode=27|XSize=1.95mm|YSize=1.95mm|CornerRadius=0.4875mm|HoleSize=0mm|Usage=FLASHONLY|Rotation=90.000|XOffset=0mm|YOffset=0mm|HoleType=Round|Shape=RoundedRectangle|*
%AMROUNDEDRECTD27*
21,1,1.9500,0.9750,0,0,90.0*
21,1,0.9750,1.9500,0,0,90.0*
1,1,0.9750,0.4875,0.4875*
1,1,0.9750,0.4875,-0.4875*
1,1,0.9750,-0.4875,-0.4875*
1,1,0.9750,-0.4875,0.4875*
%
%ADD27ROUNDEDRECTD27*%
D11*
X171450Y137760D02*
X194190D01*
D14*
X113450Y150760D02*
D03*
Y144260D02*
D03*
Y137760D02*
D03*
Y131260D02*
D03*
Y124760D02*
D03*
Y118260D02*
D03*
Y111760D02*
D03*
Y105260D02*
D03*
X171450Y150760D02*
D03*
Y144260D02*
D03*
Y137760D02*
D03*
Y131260D02*
D03*
Y124760D02*
D03*
Y118260D02*
D03*
Y111760D02*
D03*
Y105260D02*
D03*
D15*
X31750Y54970D02*
D03*
Y36470D02*
D03*
D16*
X68580Y35220D02*
D03*
Y56220D02*
D03*
X102870Y35220D02*
D03*
Y56220D02*
D03*
D21*
X47492Y163478D02*
X105365Y105605D01*
X44490Y78310D02*
X66580Y56220D01*
X44490Y78310D02*
Y123590D01*
X66580Y56220D02*
X68580D01*
X105365Y105605D02*
X113105D01*
X44490Y173590D02*
X47492Y170588D01*
X113105Y105605D02*
X113450Y105260D01*
X47492Y163478D02*
Y170588D01*
X158885Y117467D02*
X159678Y118260D01*
X119493Y117467D02*
X158885D01*
X118700Y118260D02*
X119493Y117467D01*
X113450Y118260D02*
X118700D01*
X159678D02*
X171450D01*
X113450Y124760D02*
Y131260D01*
Y118260D02*
Y124760D01*
X146278Y80775D02*
X165855D01*
X114047Y48545D02*
X146278Y80775D01*
X94470Y48545D02*
X114047D01*
X86795Y56220D02*
X94470Y48545D01*
X68580Y56220D02*
X86795D01*
X102870D02*
X104870D01*
X113450Y64800D02*
Y105260D01*
X104870Y56220D02*
X113450Y64800D01*
X165855Y80775D02*
Y104915D01*
X166200Y105260D02*
X171450D01*
X165855Y104915D02*
X166200Y105260D01*
X173990Y111760D02*
X180340Y111760D01*
X182878Y109221D02*
X186690Y105410D01*
Y102870D02*
Y105410D01*
X180340Y111760D02*
X182878Y109221D01*
X171450Y118260D02*
X171600Y118110D01*
X183188D02*
X185420Y120342D01*
Y125030D01*
X171600Y118110D02*
X183188D01*
X179535Y130915D02*
X185420Y125030D01*
X171450Y131260D02*
X171795Y130915D01*
X179535D01*
X113450Y137760D02*
X154270D01*
X154940Y138430D01*
X157172Y124760D02*
X171450D01*
X154940Y126992D02*
X157172Y124760D01*
D22*
X10780Y47007D02*
X19653Y55880D01*
X10780Y25933D02*
Y47007D01*
X177930Y14900D02*
X210020Y46990D01*
X21813Y14900D02*
X177930D01*
X10780Y25933D02*
X21813Y14900D01*
X19653Y55880D02*
X24130D01*
X131220Y46990D02*
X160020D01*
X102870Y35220D02*
Y36920D01*
X121300Y37070D02*
X131220Y46990D01*
X102870Y36920D02*
X103020Y37070D01*
X121300D01*
X160020Y46990D02*
X186690Y73660D01*
X68580Y35220D02*
X102870D01*
X31750Y35870D02*
Y36470D01*
X32400Y35220D02*
X68580D01*
X31750Y35870D02*
X32400Y35220D01*
X154940Y138430D02*
Y201930D01*
Y126992D02*
Y138430D01*
Y201930D02*
X168910Y215900D01*
X194190Y137760D02*
X218910Y162480D01*
D23*
X186690Y73660D02*
Y102870D01*
X185420Y120342D02*
X210020Y95742D01*
D24*
Y46990D02*
Y95742D01*
X218910Y162480D02*
Y215900D01*
D25*
X168910D02*
D03*
X160020Y46990D02*
D03*
D26*
X218910Y215900D02*
D03*
X44490Y173590D02*
D03*
X210020Y46990D02*
D03*
D27*
X44490Y123590D02*
D03*
M02*
