G04*
G04 #@! TF.GenerationSoftware,Altium Limited,Altium Designer,24.9.1 (31)*
G04*
G04 Layer_Color=65535*
%FSLAX44Y44*%
%MOMM*%
G71*
G04*
G04 #@! TF.SameCoordinates,6FF1A4AC-1349-41AC-8DD2-F97DD9D855A8*
G04*
G04*
G04 #@! TF.FilePolarity,Positive*
G04*
G01*
G75*
%ADD10C,0.2000*%
%ADD11C,0.2540*%
%ADD12C,0.1500*%
%ADD13C,0.1778*%
D10*
X143910Y175900D02*
Y250900D01*
X243910Y175900D02*
Y250900D01*
X143910D02*
X243910D01*
X143910Y175900D02*
X243910D01*
X9490Y98590D02*
X84490D01*
X9490Y198590D02*
X84490D01*
X9490Y98590D02*
Y198590D01*
X84490Y98590D02*
Y198590D01*
X135020Y6990D02*
Y81990D01*
X235020Y6990D02*
Y81990D01*
X135020D02*
X235020D01*
X135020Y6990D02*
X235020D01*
X39000Y44970D02*
Y46470D01*
X24500Y44970D02*
Y46470D01*
X61830Y43470D02*
Y47970D01*
X75330Y43470D02*
Y47970D01*
X96120Y43470D02*
Y47970D01*
X109620Y43470D02*
Y47970D01*
D11*
X124880Y98690D02*
Y155840D01*
Y98690D02*
X159170D01*
Y155840D01*
X124880D02*
X159170D01*
X129960Y150760D02*
X131230D01*
D12*
X99710Y148450D02*
X101209D01*
X100460D01*
Y152949D01*
X99710Y152199D01*
D13*
X14010Y212959D02*
X11471D01*
X12741D01*
Y206611D01*
X11471Y205341D01*
X10202D01*
X8932Y206611D01*
X21628Y205341D02*
X16550D01*
X21628Y210420D01*
Y211689D01*
X20358Y212959D01*
X17819D01*
X16550Y211689D01*
X116842Y168909D02*
Y162561D01*
X118111Y161291D01*
X120650D01*
X121920Y162561D01*
Y168909D01*
X124459Y161291D02*
X126998D01*
X125729D01*
Y168909D01*
X124459Y167639D01*
X96012Y69596D02*
Y77214D01*
X99821D01*
X101090Y75944D01*
Y73405D01*
X99821Y72135D01*
X96012D01*
X98551D02*
X101090Y69596D01*
X108708D02*
X103630D01*
X108708Y74674D01*
Y75944D01*
X107438Y77214D01*
X104899D01*
X103630Y75944D01*
X61722Y69596D02*
Y77214D01*
X65531D01*
X66800Y75944D01*
Y73405D01*
X65531Y72135D01*
X61722D01*
X64261D02*
X66800Y69596D01*
X69339D02*
X71879D01*
X70609D01*
Y77214D01*
X69339Y75944D01*
X236220Y96519D02*
X233681D01*
X234951D01*
Y90171D01*
X233681Y88901D01*
X232412D01*
X231142Y90171D01*
X238760Y95249D02*
X240029Y96519D01*
X242568D01*
X243838Y95249D01*
Y93980D01*
X242568Y92710D01*
X241299D01*
X242568D01*
X243838Y91440D01*
Y90171D01*
X242568Y88901D01*
X240029D01*
X238760Y90171D01*
X130809Y246379D02*
X128270D01*
X129539D01*
Y240031D01*
X128270Y238761D01*
X127000D01*
X125730Y240031D01*
X133348Y238761D02*
X135887D01*
X134618D01*
Y246379D01*
X133348Y245109D01*
X27176Y75944D02*
X25907Y77214D01*
X23368D01*
X22098Y75944D01*
Y70866D01*
X23368Y69596D01*
X25907D01*
X27176Y70866D01*
X29715Y69596D02*
X32255D01*
X30985D01*
Y77214D01*
X29715Y75944D01*
M02*
