G04*
G04 #@! TF.GenerationSoftware,Altium Limited,Altium Designer,24.9.1 (31)*
G04*
G04 Layer_Color=8421504*
%FSLAX44Y44*%
%MOMM*%
G71*
G04*
G04 #@! TF.SameCoordinates,6922BCB2-4B6C-4A80-BBEF-7EC809250BDD*
G04*
G04*
G04 #@! TF.FilePolarity,Positive*
G04*
G01*
G75*
%ADD16R,1.4000X0.9500*%
%ADD17R,1.5562X1.5046*%
%ADD18R,1.4000X0.7000*%
%ADD19O,2.6000X0.7000*%
%ADD20R,1.7000X0.8000*%
%ADD21R,1.7000X0.9500*%
%ADD22R,0.5000X0.7000*%
%ADD23R,1.3500X0.8500*%
%ADD24R,1.5046X1.5562*%
%ADD25R,0.9500X1.4000*%
G04:AMPARAMS|DCode=26|XSize=2.1692mm|YSize=0.5821mm|CornerRadius=0.2911mm|HoleSize=0mm|Usage=FLASHONLY|Rotation=180.000|XOffset=0mm|YOffset=0mm|HoleType=Round|Shape=RoundedRectangle|*
%AMROUNDEDRECTD26*
21,1,2.1692,0.0000,0,0,180.0*
21,1,1.5870,0.5821,0,0,180.0*
1,1,0.5821,-0.7935,0.0000*
1,1,0.5821,0.7935,0.0000*
1,1,0.5821,0.7935,0.0000*
1,1,0.5821,-0.7935,0.0000*
%
%ADD26ROUNDEDRECTD26*%
%ADD27R,2.1692X0.5821*%
%ADD28R,0.5654X0.5725*%
D16*
X922020Y378100D02*
D03*
Y396600D02*
D03*
X822960Y428350D02*
D03*
Y409850D02*
D03*
X1008560Y615220D02*
D03*
Y596720D02*
D03*
D17*
X951230Y379612D02*
D03*
Y397628D02*
D03*
X910590Y539750D02*
D03*
Y521734D02*
D03*
X975540Y621328D02*
D03*
Y603312D02*
D03*
D18*
X1069340Y560070D02*
D03*
X1069340Y572770D02*
D03*
X1069340Y585470D02*
D03*
Y598170D02*
D03*
D19*
X778510Y622300D02*
D03*
X778510Y609600D02*
D03*
Y596900D02*
D03*
X778510Y584200D02*
D03*
X778510Y571500D02*
D03*
X778510Y558800D02*
D03*
X778510Y546100D02*
D03*
Y533400D02*
D03*
X778510Y520700D02*
D03*
X778510Y508000D02*
D03*
X778510Y495300D02*
D03*
X778510Y482600D02*
D03*
Y469900D02*
D03*
X778510Y457200D02*
D03*
X870510Y622300D02*
D03*
Y609600D02*
D03*
Y596900D02*
D03*
Y584200D02*
D03*
Y571500D02*
D03*
Y558800D02*
D03*
Y546100D02*
D03*
Y533400D02*
D03*
Y520700D02*
D03*
Y508000D02*
D03*
Y495300D02*
D03*
Y482600D02*
D03*
Y469900D02*
D03*
Y457200D02*
D03*
D20*
X631190Y623080D02*
D03*
Y657080D02*
D03*
D21*
X680720Y524730D02*
D03*
Y552230D02*
D03*
X609600Y524730D02*
D03*
Y552230D02*
D03*
X641350Y423960D02*
D03*
Y396460D02*
D03*
D22*
X633730Y534560D02*
D03*
Y543560D02*
D03*
X655320Y545520D02*
D03*
Y536520D02*
D03*
D23*
X1032510Y559430D02*
D03*
Y542930D02*
D03*
X996950Y546730D02*
D03*
Y530230D02*
D03*
D24*
X853322Y421640D02*
D03*
X871338D02*
D03*
X734178Y365760D02*
D03*
X716162D02*
D03*
D25*
X676000Y641350D02*
D03*
X657500D02*
D03*
X688700Y368300D02*
D03*
X670200D02*
D03*
D26*
X677404Y393700D02*
D03*
Y406400D02*
D03*
Y419100D02*
D03*
Y431800D02*
D03*
X724676D02*
D03*
Y419100D02*
D03*
Y406400D02*
D03*
D27*
Y393700D02*
D03*
D28*
X658404Y664210D02*
D03*
X667476D02*
D03*
M02*
