M48
;Layer_Color=9474304
;FILE_FORMAT=4:4
METRIC,LZ
;TYPE=PLATED
T01F00S00C0.3810
T02F00S00C0.6500
T03F00S00C1.0200
T04F00S00C1.3000
T05F00S00C3.1750
%
T01
X0067105Y0034749
X006901
X007155Y0034368
X0073455Y0034241
X0069645Y0039419
X0089662Y0039497
X0089789Y0037592
X0087122Y0040132
X0085344
X0080391Y0040894
X0080518Y0042799
X0080264Y0047498
Y004953
X008001Y005461
X0080391Y0060579
X0089535Y0061087
Y0062357
X0093472Y0054102
X0097917Y0052959
X0103251Y0052832
X0105283Y0057277
X01054045Y00585525
X0102743Y006096
X0101219Y0057658
X0097917Y0043688
X0089662Y004699
X0084582Y0050673
X0075311Y005334
Y0057023
X0075184Y0058547
X0069977Y0055245
X0069469Y0064135
X0068326Y0066421
X0060325Y0065786
X0056642Y0062865
Y0060325
X0059182Y0055245
X0069469Y0043307
X0070485Y004191
X0072771Y0044704
X0075184Y0046355
T02
X0101219Y0041402
X0106299
X0103759Y0043942
T03
X0053975Y0052705
Y0055245
Y0057785
Y0060325
Y0062865
Y0065405
T04
X0056523Y00356403
Y00406403
Y00456402
T05
X0045593Y0031623
X0105029
X0105029Y0068834
X0045593
M30
