G04*
G04 #@! TF.GenerationSoftware,Altium Limited,Altium Designer,24.9.1 (31)*
G04*
G04 Layer_Physical_Order=1*
G04 Layer_Color=255*
%FSLAX44Y44*%
%MOMM*%
G71*
G04*
G04 #@! TF.SameCoordinates,6922BCB2-4B6C-4A80-BBEF-7EC809250BDD*
G04*
G04*
G04 #@! TF.FilePolarity,Positive*
G04*
G01*
G75*
%ADD16R,1.4000X0.9500*%
%ADD17R,1.5562X1.5046*%
%ADD18R,1.4000X0.7000*%
%ADD19O,2.6000X0.7000*%
%ADD20R,1.7000X0.8000*%
%ADD21R,1.7000X0.9500*%
%ADD22R,0.5000X0.7000*%
%ADD23R,1.3500X0.8500*%
%ADD24R,1.5046X1.5562*%
%ADD25R,0.9500X1.4000*%
G04:AMPARAMS|DCode=26|XSize=2.1692mm|YSize=0.5821mm|CornerRadius=0.2911mm|HoleSize=0mm|Usage=FLASHONLY|Rotation=180.000|XOffset=0mm|YOffset=0mm|HoleType=Round|Shape=RoundedRectangle|*
%AMROUNDEDRECTD26*
21,1,2.1692,0.0000,0,0,180.0*
21,1,1.5870,0.5821,0,0,180.0*
1,1,0.5821,-0.7935,0.0000*
1,1,0.5821,0.7935,0.0000*
1,1,0.5821,0.7935,0.0000*
1,1,0.5821,-0.7935,0.0000*
%
%ADD26ROUNDEDRECTD26*%
%ADD27R,2.1692X0.5821*%
%ADD28R,0.5654X0.5725*%
%ADD33R,1.1500X1.1500*%
%ADD34C,1.1500*%
%ADD39C,0.2540*%
%ADD40R,7.6200X7.6200*%
%ADD41C,1.9500*%
G04:AMPARAMS|DCode=42|XSize=1.95mm|YSize=1.95mm|CornerRadius=0.4875mm|HoleSize=0mm|Usage=FLASHONLY|Rotation=270.000|XOffset=0mm|YOffset=0mm|HoleType=Round|Shape=RoundedRectangle|*
%AMROUNDEDRECTD42*
21,1,1.9500,0.9750,0,0,270.0*
21,1,0.9750,1.9500,0,0,270.0*
1,1,0.9750,-0.4875,-0.4875*
1,1,0.9750,-0.4875,0.4875*
1,1,0.9750,0.4875,0.4875*
1,1,0.9750,0.4875,-0.4875*
%
%ADD42ROUNDEDRECTD42*%
%ADD43R,1.5500X1.5500*%
%ADD44C,1.5500*%
%ADD45C,0.8890*%
D16*
X922020Y378100D02*
D03*
Y396600D02*
D03*
X822960Y428350D02*
D03*
Y409850D02*
D03*
X1008560Y615220D02*
D03*
Y596720D02*
D03*
D17*
X951230Y379612D02*
D03*
Y397628D02*
D03*
X910590Y539750D02*
D03*
Y521734D02*
D03*
X975540Y621328D02*
D03*
Y603312D02*
D03*
D18*
X1069340Y560070D02*
D03*
X1069340Y572770D02*
D03*
X1069340Y585470D02*
D03*
Y598170D02*
D03*
D19*
X778510Y622300D02*
D03*
X778510Y609600D02*
D03*
Y596900D02*
D03*
X778510Y584200D02*
D03*
X778510Y571500D02*
D03*
X778510Y558800D02*
D03*
X778510Y546100D02*
D03*
Y533400D02*
D03*
X778510Y520700D02*
D03*
X778510Y508000D02*
D03*
X778510Y495300D02*
D03*
X778510Y482600D02*
D03*
Y469900D02*
D03*
X778510Y457200D02*
D03*
X870510Y622300D02*
D03*
Y609600D02*
D03*
Y596900D02*
D03*
Y584200D02*
D03*
Y571500D02*
D03*
Y558800D02*
D03*
Y546100D02*
D03*
Y533400D02*
D03*
Y520700D02*
D03*
Y508000D02*
D03*
Y495300D02*
D03*
Y482600D02*
D03*
Y469900D02*
D03*
Y457200D02*
D03*
D20*
X631190Y623080D02*
D03*
Y657080D02*
D03*
D21*
X680720Y524730D02*
D03*
Y552230D02*
D03*
X609600Y524730D02*
D03*
Y552230D02*
D03*
X641350Y423960D02*
D03*
Y396460D02*
D03*
D22*
X633730Y534560D02*
D03*
Y543560D02*
D03*
X655320Y545520D02*
D03*
Y536520D02*
D03*
D23*
X1032510Y559430D02*
D03*
Y542930D02*
D03*
X996950Y546730D02*
D03*
Y530230D02*
D03*
D24*
X853322Y421640D02*
D03*
X871338D02*
D03*
X734178Y365760D02*
D03*
X716162D02*
D03*
D25*
X676000Y641350D02*
D03*
X657500D02*
D03*
X688700Y368300D02*
D03*
X670200D02*
D03*
D26*
X677404Y393700D02*
D03*
Y406400D02*
D03*
Y419100D02*
D03*
Y431800D02*
D03*
X724676D02*
D03*
Y419100D02*
D03*
Y406400D02*
D03*
D27*
Y393700D02*
D03*
D28*
X658404Y664210D02*
D03*
X667476D02*
D03*
D33*
X1062990Y414020D02*
D03*
D34*
X1012190D02*
D03*
X1037590Y439420D02*
D03*
D39*
X951230Y375920D02*
X1024890D01*
X922020D02*
X951230D01*
X919840D02*
X922020Y378100D01*
X897890Y375920D02*
X919840D01*
X975360Y603132D02*
X986908D01*
X1006020Y596720D02*
X1012190Y590550D01*
X863600Y623080D02*
X894860D01*
X804400Y409430D02*
X826770D01*
X769620Y470680D02*
X797977D01*
X871220Y401320D02*
Y424960D01*
X677404Y393700D02*
X695960D01*
X674860D02*
X677404D01*
X670560Y347980D02*
Y369080D01*
X1024890Y375920D02*
X1062990Y414020D01*
X994410Y614680D02*
X1022350D01*
X863600Y610380D02*
X894860D01*
X896620Y394970D02*
X993140D01*
X846310Y507220D02*
X877570D01*
X852950Y401810D02*
Y425450D01*
X678400Y552450D02*
X699770D01*
X753600Y533890D02*
X784860D01*
X674730Y645160D02*
X678540Y641350D01*
X805670Y428480D02*
X828040D01*
X673100Y432580D02*
X694200D01*
X689610Y347980D02*
Y369080D01*
X993140Y394970D02*
X1012190Y414020D01*
X1035165Y439420D02*
X1037590D01*
X1032625Y436880D02*
X1035165Y439420D01*
X979170Y436880D02*
X1032625D01*
X1050290Y598170D02*
X1069340D01*
X870230Y495300D02*
X923290D01*
X974720Y546730D02*
X998850D01*
X1054045Y585525D02*
X1057438D01*
X1057493Y585470D02*
X1069340D01*
X1057438Y585525D02*
X1057493Y585470D01*
X778510Y495300D02*
X802640D01*
X778510Y546100D02*
X800100D01*
X539750Y603250D02*
X566420D01*
X539750Y628650D02*
X566420D01*
X678540Y641350D02*
X694690D01*
X603250Y657860D02*
X630700D01*
X753110Y570230D02*
X777240D01*
X751840Y585470D02*
X777240D01*
X734060Y342900D02*
Y364000D01*
X715010Y344170D02*
Y365270D01*
X694200Y432580D02*
X694690Y433070D01*
X660400Y406400D02*
X677404D01*
X652780Y398780D02*
X660400Y406400D01*
X618490Y398780D02*
X652780D01*
X610868Y406403D02*
X618490Y398780D01*
X565230Y406403D02*
X610868D01*
X659130Y419100D02*
X680720D01*
X654050Y424180D02*
X659130Y419100D01*
X627380Y424180D02*
X654050D01*
X595158Y456402D02*
X627380Y424180D01*
X565230Y456402D02*
X595158D01*
X852950Y401810D02*
X853440Y401320D01*
X805180Y427990D02*
X805670Y428480D01*
X803910Y408940D02*
X804400Y409430D01*
X845820Y506730D02*
X846310Y507220D01*
X894860Y610380D02*
X895350Y610870D01*
X894860Y623080D02*
X895350Y623570D01*
X797977Y470680D02*
X802277Y474980D01*
X802640D01*
X753110Y533400D02*
X753600Y533890D01*
X778510Y609600D02*
X787918D01*
X791728Y605790D01*
X803910D01*
X1022350Y614680D02*
X1027430Y609600D01*
X987762Y621328D02*
X994410Y614680D01*
X975540Y621328D02*
X987762D01*
X1032510Y542930D02*
Y544200D01*
Y528320D02*
Y542930D01*
X993680Y596720D02*
X1006020D01*
X987088Y603312D02*
X993680Y596720D01*
X1012190Y576580D02*
Y590550D01*
X1052830Y572770D02*
X1069340D01*
X724676Y431800D02*
X726194D01*
X727710Y433316D01*
Y447040D01*
X739140Y393700D02*
X754380Y408940D01*
Y450850D02*
X760730Y457200D01*
X754380Y408940D02*
Y450850D01*
X704850Y419100D02*
X724676D01*
Y406400D02*
Y419100D01*
Y393700D02*
X739140D01*
X760730Y457200D02*
X778510D01*
X633730Y514350D02*
X684530Y463550D01*
X751840D01*
X870510Y469900D02*
X896620D01*
X870230D02*
X870510D01*
X912490Y541020D02*
X934720D01*
X870230Y482600D02*
X979170D01*
X1013460Y516890D01*
X979170Y529590D02*
X996310D01*
X996950Y530230D01*
X1013460Y516890D02*
Y544830D01*
X1032510Y559430D02*
X1068700D01*
X1028060D02*
X1032510D01*
X1013460Y544830D02*
X1028060Y559430D01*
X998850Y546730D02*
X1050290Y598170D01*
X923290Y495300D02*
X974720Y546730D01*
X870230Y520700D02*
X914518D01*
X591820Y552450D02*
X592040Y552230D01*
X609600D01*
X664210Y524510D02*
X680500D01*
X655320Y533400D02*
X664210Y524510D01*
X655320Y533400D02*
Y536520D01*
X680720Y524730D02*
X680940Y524510D01*
X749300Y558800D02*
X778230D01*
X745490Y562610D02*
X749300Y558800D01*
X659130Y562610D02*
X745490D01*
X655320Y558800D02*
X659130Y562610D01*
X655320Y545520D02*
Y558800D01*
X633730Y514350D02*
Y534560D01*
X619760Y543560D02*
X633730D01*
X609600Y533400D02*
X619760Y543560D01*
X609600Y524730D02*
Y533400D01*
X667476Y664210D02*
X683260D01*
X658404Y649514D02*
Y665480D01*
X652780Y643890D02*
X658404Y649514D01*
X645160Y643890D02*
X652780D01*
X631190Y629920D02*
X645160Y643890D01*
X631190Y624350D02*
Y629920D01*
X541020Y579120D02*
X571500D01*
X539750Y577850D02*
X541020Y579120D01*
X571500D02*
X614680Y622300D01*
X778230D01*
D40*
X1050290Y316230D02*
D03*
X1050290Y688340D02*
D03*
X455930Y316230D02*
D03*
X455930Y688340D02*
D03*
D41*
X565230Y406403D02*
D03*
Y356403D02*
D03*
D42*
Y456402D02*
D03*
D43*
X539750Y527050D02*
D03*
D44*
Y552450D02*
D03*
Y577850D02*
D03*
Y603250D02*
D03*
Y628650D02*
D03*
Y654050D02*
D03*
D45*
X979170Y436880D02*
D03*
X802640Y495300D02*
D03*
X566420Y603250D02*
D03*
Y628650D02*
D03*
X694690Y641350D02*
D03*
X603250Y657860D02*
D03*
X753110Y570230D02*
D03*
X751840Y585470D02*
D03*
X734550Y342410D02*
D03*
X715500Y343680D02*
D03*
X690100Y347490D02*
D03*
X671050D02*
D03*
X696450Y394190D02*
D03*
X694690Y433070D02*
D03*
X897890Y375920D02*
D03*
X896620Y394970D02*
D03*
X853440Y401320D02*
D03*
X871220D02*
D03*
X805180Y427990D02*
D03*
X803910Y408940D02*
D03*
X845820Y506730D02*
D03*
X895350Y610870D02*
D03*
Y623570D02*
D03*
X802640Y474980D02*
D03*
X753110Y533400D02*
D03*
X803910Y605790D02*
D03*
X1027430Y609600D02*
D03*
X1012190Y576580D02*
D03*
X1054045Y585525D02*
D03*
X1052830Y572770D02*
D03*
X727710Y447040D02*
D03*
X751840Y463550D02*
D03*
X800100Y546100D02*
D03*
X704850Y419100D02*
D03*
X934720Y541020D02*
D03*
X979170Y529590D02*
D03*
X1032510Y528320D02*
D03*
X896620Y469900D02*
D03*
X591820Y552450D02*
D03*
X699770D02*
D03*
X683260Y664210D02*
D03*
M02*
