G04*
G04 #@! TF.GenerationSoftware,Altium Limited,Altium Designer,24.9.1 (31)*
G04*
G04 Layer_Color=8388736*
%FSLAX44Y44*%
%MOMM*%
G71*
G04*
G04 #@! TF.SameCoordinates,75EA1287-3778-4008-B1FA-0AB461243C17*
G04*
G04*
G04 #@! TF.FilePolarity,Negative*
G04*
G01*
G75*
%ADD16R,0.9500X1.4000*%
%ADD17R,1.5562X1.5046*%
%ADD18R,1.5046X1.5562*%
G04:AMPARAMS|DCode=20|XSize=2.1692mm|YSize=0.5821mm|CornerRadius=0.2911mm|HoleSize=0mm|Usage=FLASHONLY|Rotation=180.000|XOffset=0mm|YOffset=0mm|HoleType=Round|Shape=RoundedRectangle|*
%AMROUNDEDRECTD20*
21,1,2.1692,0.0000,0,0,180.0*
21,1,1.5870,0.5821,0,0,180.0*
1,1,0.5821,-0.7935,0.0000*
1,1,0.5821,0.7935,0.0000*
1,1,0.5821,0.7935,0.0000*
1,1,0.5821,-0.7935,0.0000*
%
%ADD20ROUNDEDRECTD20*%
%ADD21R,2.1692X0.5821*%
%ADD22R,0.5000X0.7000*%
%ADD23R,0.5654X0.5725*%
%ADD24R,1.7000X0.8000*%
%ADD26R,1.4000X0.9500*%
%ADD27O,2.8032X0.9032*%
%ADD28R,1.9032X1.1532*%
%ADD29R,7.8232X7.8232*%
%ADD30C,2.1532*%
G04:AMPARAMS|DCode=31|XSize=2.1532mm|YSize=2.1532mm|CornerRadius=0.5891mm|HoleSize=0mm|Usage=FLASHONLY|Rotation=270.000|XOffset=0mm|YOffset=0mm|HoleType=Round|Shape=RoundedRectangle|*
%AMROUNDEDRECTD31*
21,1,2.1532,0.9750,0,0,270.0*
21,1,0.9750,2.1532,0,0,270.0*
1,1,1.1782,-0.4875,-0.4875*
1,1,1.1782,-0.4875,0.4875*
1,1,1.1782,0.4875,0.4875*
1,1,1.1782,0.4875,-0.4875*
%
%ADD31ROUNDEDRECTD31*%
%ADD32R,1.7532X1.7532*%
%ADD33C,1.7532*%
%ADD34C,1.1500*%
%ADD35R,1.1500X1.1500*%
D16*
X809900Y482600D02*
D03*
X828400D02*
D03*
X920390Y652780D02*
D03*
X938890D02*
D03*
X663300Y436880D02*
D03*
X644800D02*
D03*
X650600Y712470D02*
D03*
X632100D02*
D03*
D17*
X784860Y469782D02*
D03*
Y487798D02*
D03*
X876300Y608448D02*
D03*
Y590432D02*
D03*
X895350Y463668D02*
D03*
Y445652D02*
D03*
D18*
X919362Y683260D02*
D03*
X937378D02*
D03*
X688222Y435610D02*
D03*
X706238D02*
D03*
D20*
X651228Y462280D02*
D03*
Y474980D02*
D03*
Y487680D02*
D03*
Y500380D02*
D03*
X698500D02*
D03*
Y487680D02*
D03*
Y474980D02*
D03*
D21*
Y462280D02*
D03*
D22*
X631600Y612830D02*
D03*
Y603830D02*
D03*
X609600Y603140D02*
D03*
Y612140D02*
D03*
D23*
X633004Y737870D02*
D03*
X642076D02*
D03*
D24*
X605790Y692930D02*
D03*
Y726930D02*
D03*
D26*
X925830Y466450D02*
D03*
Y447950D02*
D03*
D27*
X842010Y525780D02*
D03*
Y538480D02*
D03*
Y551180D02*
D03*
Y563880D02*
D03*
Y576580D02*
D03*
Y589280D02*
D03*
Y601980D02*
D03*
Y614680D02*
D03*
Y627380D02*
D03*
Y640080D02*
D03*
Y652780D02*
D03*
Y665480D02*
D03*
Y678180D02*
D03*
Y690880D02*
D03*
X750010Y525780D02*
D03*
Y538480D02*
D03*
Y551180D02*
D03*
Y563880D02*
D03*
Y576580D02*
D03*
Y589280D02*
D03*
Y601980D02*
D03*
Y614680D02*
D03*
Y627380D02*
D03*
Y640080D02*
D03*
Y652780D02*
D03*
Y665480D02*
D03*
Y678180D02*
D03*
Y690880D02*
D03*
D28*
X617220Y493810D02*
D03*
Y466310D02*
D03*
X585470Y593310D02*
D03*
Y620810D02*
D03*
X654050Y593310D02*
D03*
Y620810D02*
D03*
D29*
X431800Y756920D02*
D03*
X431800Y384810D02*
D03*
X1026160Y756920D02*
D03*
X1026160Y384810D02*
D03*
D30*
X537130Y426248D02*
D03*
Y476247D02*
D03*
D31*
Y526247D02*
D03*
D32*
X516890Y595630D02*
D03*
D33*
Y621030D02*
D03*
Y646430D02*
D03*
Y671830D02*
D03*
Y697230D02*
D03*
Y722630D02*
D03*
D34*
X1016000Y508000D02*
D03*
X990600Y482600D02*
D03*
X1013460Y626110D02*
D03*
X1038860Y651510D02*
D03*
D35*
X1041400Y482600D02*
D03*
X988060Y651510D02*
D03*
M02*
