G04*
G04 #@! TF.GenerationSoftware,Altium Limited,Altium Designer,24.9.1 (31)*
G04*
G04 Layer_Physical_Order=4*
G04 Layer_Color=16711680*
%FSLAX44Y44*%
%MOMM*%
G71*
G04*
G04 #@! TF.SameCoordinates,75EA1287-3778-4008-B1FA-0AB461243C17*
G04*
G04*
G04 #@! TF.FilePolarity,Positive*
G04*
G01*
G75*
%ADD34C,1.1500*%
%ADD35R,1.1500X1.1500*%
%ADD36C,0.2540*%
%ADD37R,7.6200X7.6200*%
%ADD38C,1.9500*%
G04:AMPARAMS|DCode=39|XSize=1.95mm|YSize=1.95mm|CornerRadius=0.4875mm|HoleSize=0mm|Usage=FLASHONLY|Rotation=270.000|XOffset=0mm|YOffset=0mm|HoleType=Round|Shape=RoundedRectangle|*
%AMROUNDEDRECTD39*
21,1,1.9500,0.9750,0,0,270.0*
21,1,0.9750,1.9500,0,0,270.0*
1,1,0.9750,-0.4875,-0.4875*
1,1,0.9750,-0.4875,0.4875*
1,1,0.9750,0.4875,0.4875*
1,1,0.9750,0.4875,-0.4875*
%
%ADD39ROUNDEDRECTD39*%
%ADD40R,1.5500X1.5500*%
%ADD41C,1.5500*%
%ADD42C,0.8890*%
D34*
X1016000Y508000D02*
D03*
X990600Y482600D02*
D03*
X1013460Y626110D02*
D03*
X1038860Y651510D02*
D03*
D35*
X1041400Y482600D02*
D03*
X988060Y651510D02*
D03*
D36*
X850900Y626110D02*
X1013460D01*
X796290Y680720D02*
X850900Y626110D01*
X778510Y680720D02*
X796290D01*
X778510Y657860D02*
Y665480D01*
Y657860D02*
X930910Y505460D01*
X542290Y671830D02*
X574040D01*
X542290Y697230D02*
X561340D01*
X728980Y532130D02*
X866140D01*
X872490Y538480D01*
X718820Y614680D02*
X775970D01*
X680720Y576580D02*
X718820Y614680D01*
X680720Y487680D02*
Y576580D01*
X703580Y539750D02*
X727710Y563880D01*
X703580Y515620D02*
Y539750D01*
X600710Y645160D02*
X722630D01*
X728980Y638810D01*
X604520Y654050D02*
X727710D01*
X561340Y697230D02*
X604520Y654050D01*
X574040Y671830D02*
X600710Y645160D01*
X727710Y563880D02*
X778510D01*
X930910Y505460D02*
X955040D01*
D37*
X431800Y756920D02*
D03*
X431800Y384810D02*
D03*
X1026160Y756920D02*
D03*
X1026160Y384810D02*
D03*
D38*
X537130Y426248D02*
D03*
Y476247D02*
D03*
D39*
Y526247D02*
D03*
D40*
X516890Y595630D02*
D03*
D41*
Y621030D02*
D03*
Y646430D02*
D03*
Y671830D02*
D03*
Y697230D02*
D03*
Y722630D02*
D03*
D42*
X760730Y491490D02*
D03*
X868680Y440690D02*
D03*
X873760Y464820D02*
D03*
X943610Y709930D02*
D03*
X919480Y711200D02*
D03*
X901700Y608330D02*
D03*
X760730Y469900D02*
D03*
X810260Y459740D02*
D03*
X778510Y680720D02*
D03*
X708660Y412750D02*
D03*
X688222Y412868D02*
D03*
X663300Y415650D02*
D03*
X644800Y414380D02*
D03*
X778510Y563880D02*
D03*
X678180Y619760D02*
D03*
X819150Y575310D02*
D03*
X778510Y665480D02*
D03*
X567910Y620810D02*
D03*
X725170Y601980D02*
D03*
X875030Y678180D02*
D03*
X872490Y697230D02*
D03*
X542290Y671830D02*
D03*
X670560Y713740D02*
D03*
X659130Y737870D02*
D03*
X542290Y697230D02*
D03*
X872490Y538480D02*
D03*
X680720Y487680D02*
D03*
X775970Y614680D02*
D03*
X727710Y532130D02*
D03*
X703580Y515620D02*
D03*
X778510Y543560D02*
D03*
X828040Y462280D02*
D03*
X670560Y501650D02*
D03*
X672320Y462770D02*
D03*
X727710Y654050D02*
D03*
X728980Y638810D02*
D03*
X579120Y726440D02*
D03*
X955040Y505460D02*
D03*
M02*
