M48
;Layer_Color=9474304
;FILE_FORMAT=4:4
METRIC,LZ
;TYPE=PLATED
T01F00S00C0.3810
T02F00S00C0.6500
T03F00S00C1.0200
T04F00S00C1.3000
T05F00S00C3.1750
%
T01
X0081026Y0045974
X0082804Y0046228
X0087376Y0046482
X0086868Y0044069
X0087249Y0053848
X0081915Y0057531
X009017Y0060833
X0087503Y0067818
X0087249Y0069723
X0091948Y007112
X0094361Y0070993
X0095504Y0050546
X0076073Y0049149
Y004699
X0077851Y0054356
Y0056388
X0077597Y0061468
X0077851Y0066548
Y0068072
X0072771Y0065405
X0072898Y0063881
X0072517Y0060198
X0067818Y0061976
X0067056Y0071374
X0065913Y0073787
X0057912Y0072644
X0054229Y0069723
Y0067183
X0056791Y0062081
X0067056Y0050165
X0068072Y0048768
X0067232Y0046277
X006633Y0041565
X006448Y0041438
X00688222Y00412868
X0070866Y0041275
X0070358Y0051562
X0072771Y0053213
T02
X009906Y004826
X01016Y00508
X010414Y004826
X0101346Y0062611
X0103886Y0065151
X0098806
T03
X0051689Y0059563
Y0062103
Y0064643
Y0067183
Y0069723
Y0072263
T04
X0053713Y00426248
Y00476247
Y00526247
T05
X004318Y0038481
X0102616
X0102616Y0075692
X004318
M30
