G04*
G04 #@! TF.GenerationSoftware,Altium Limited,Altium Designer,24.9.1 (31)*
G04*
G04 Layer_Physical_Order=2*
G04 Layer_Color=8242323*
%FSLAX44Y44*%
%MOMM*%
G71*
G04*
G04 #@! TF.SameCoordinates,75EA1287-3778-4008-B1FA-0AB461243C17*
G04*
G04*
G04 #@! TF.FilePolarity,Negative*
G04*
G01*
G75*
%ADD43C,1.0160*%
%ADD44C,4.1910*%
%ADD45C,2.3160*%
%ADD46C,2.0360*%
G04:AMPARAMS|DCode=47|XSize=2.544mm|YSize=2.544mm|CornerRadius=0mm|HoleSize=0mm|Usage=FLASHONLY|Rotation=0.000|XOffset=0mm|YOffset=0mm|HoleType=Round|Shape=Relief|Width=0.254mm|Gap=0.254mm|Entries=4|*
%AMTHD47*
7,0,0,2.5440,2.0360,0.2540,45*
%
%ADD47THD47*%
%ADD48C,1.6660*%
G04:AMPARAMS|DCode=49|XSize=2.174mm|YSize=2.174mm|CornerRadius=0mm|HoleSize=0mm|Usage=FLASHONLY|Rotation=0.000|XOffset=0mm|YOffset=0mm|HoleType=Round|Shape=Relief|Width=0.254mm|Gap=0.254mm|Entries=4|*
%AMTHD49*
7,0,0,2.1740,1.6660,0.2540,45*
%
%ADD49THD49*%
%ADD50C,1.3970*%
G04:AMPARAMS|DCode=51|XSize=1.905mm|YSize=1.905mm|CornerRadius=0mm|HoleSize=0mm|Usage=FLASHONLY|Rotation=0.000|XOffset=0mm|YOffset=0mm|HoleType=Round|Shape=Relief|Width=0.254mm|Gap=0.254mm|Entries=4|*
%AMTHD51*
7,0,0,1.9050,1.3970,0.2540,45*
%
%ADD51THD51*%
D43*
X391160Y344170D02*
X1066800Y344170D01*
X1066800Y797560D02*
X1066800Y344170D01*
X391160Y797560D02*
X1066800Y797560D01*
X391160Y797560D02*
X391160Y344170D01*
D44*
X431800Y756920D02*
D03*
X431800Y384810D02*
D03*
X1026160Y756920D02*
D03*
X1026160Y384810D02*
D03*
D45*
X537130Y426248D02*
D03*
Y526247D02*
D03*
Y476247D02*
D03*
D46*
X516890Y595630D02*
D03*
Y621030D02*
D03*
Y646430D02*
D03*
Y671830D02*
D03*
Y697230D02*
D03*
D47*
Y722630D02*
D03*
D48*
X1016000Y508000D02*
D03*
X990600Y482600D02*
D03*
X1013460Y626110D02*
D03*
X1038860Y651510D02*
D03*
D49*
X1041400Y482600D02*
D03*
X988060Y651510D02*
D03*
D50*
X760730Y491490D02*
D03*
X873760Y464820D02*
D03*
X919480Y711200D02*
D03*
X901700Y608330D02*
D03*
X778510Y680720D02*
D03*
X688222Y412868D02*
D03*
X663300Y415650D02*
D03*
X778510Y563880D02*
D03*
X678180Y619760D02*
D03*
X819150Y575310D02*
D03*
X778510Y665480D02*
D03*
X567910Y620810D02*
D03*
X725170Y601980D02*
D03*
X875030Y678180D02*
D03*
X542290Y671830D02*
D03*
X670560Y713740D02*
D03*
X542290Y697230D02*
D03*
X872490Y538480D02*
D03*
X680720Y487680D02*
D03*
X775970Y614680D02*
D03*
X727710Y532130D02*
D03*
X703580Y515620D02*
D03*
X828040Y462280D02*
D03*
X670560Y501650D02*
D03*
X727710Y654050D02*
D03*
X728980Y638810D02*
D03*
X579120Y726440D02*
D03*
X955040Y505460D02*
D03*
D51*
X868680Y440690D02*
D03*
X943610Y709930D02*
D03*
X760730Y469900D02*
D03*
X810260Y459740D02*
D03*
X708660Y412750D02*
D03*
X644800Y414380D02*
D03*
X872490Y697230D02*
D03*
X659130Y737870D02*
D03*
X778510Y543560D02*
D03*
X672320Y462770D02*
D03*
M02*
