G04*
G04 #@! TF.GenerationSoftware,Altium Limited,Altium Designer,24.9.1 (31)*
G04*
G04 Layer_Color=65535*
%FSLAX44Y44*%
%MOMM*%
G71*
G04*
G04 #@! TF.SameCoordinates,75EA1287-3778-4008-B1FA-0AB461243C17*
G04*
G04*
G04 #@! TF.FilePolarity,Positive*
G04*
G01*
G75*
%ADD10C,0.6000*%
%ADD11C,0.2500*%
%ADD12C,0.1500*%
%ADD13C,0.2000*%
%ADD14C,0.1778*%
%ADD15C,0.1270*%
D10*
X780010Y688830D02*
G03*
X780010Y688830I-3000J0D01*
G01*
D11*
X751260Y699880D02*
G03*
X751260Y699880I-1250J0D01*
G01*
X716096Y462280D02*
G03*
X716096Y462280I-1250J0D01*
G01*
X632850Y594580D02*
G03*
X632850Y594580I-1250J0D01*
G01*
X611100Y621140D02*
G03*
X611100Y621140I-1250J0D01*
G01*
D12*
X1063000Y482600D02*
G03*
X1063000Y482600I-47000J0D01*
G01*
X1060460Y651510D02*
G03*
X1060460Y651510I-47000J0D01*
G01*
D13*
X818400Y489850D02*
X819900D01*
X818400Y475350D02*
X819900D01*
X796641Y462259D02*
Y495321D01*
X773079Y462259D02*
Y495321D01*
X497130Y401245D02*
X570630D01*
X577630Y401245D02*
X587130Y401245D01*
X577630Y401245D02*
X580128Y395244D01*
X568128Y395244D02*
X580128Y395244D01*
X568128Y395244D02*
X570626Y401245D01*
X525632Y551245D02*
X528130Y557246D01*
X516130D02*
X518628Y551245D01*
X516130Y557246D02*
X528130D01*
X525632Y551245D02*
X587130Y551245D01*
X497130Y551245D02*
X518630Y551245D01*
X497130Y401245D02*
Y551245D01*
X587130Y551245D02*
X587130Y401245D01*
X928890Y660030D02*
X930390D01*
X928890Y645530D02*
X930390D01*
X911839Y671479D02*
X944901D01*
X911839Y695041D02*
X944901D01*
X767010Y517830D02*
X825010D01*
X767010Y698830D02*
X825010D01*
Y517830D02*
Y698830D01*
X767010Y517830D02*
Y698830D01*
X680699Y423829D02*
X713761D01*
X680699Y447391D02*
X713761D01*
X653300Y429630D02*
X654800D01*
X653300Y444130D02*
X654800D01*
X682654Y456805D02*
Y505855D01*
X667074D02*
X682654D01*
X667074Y456805D02*
Y505855D01*
Y456805D02*
X682654D01*
X625350Y602830D02*
Y613830D01*
X637850Y602830D02*
Y613830D01*
X603287Y602247D02*
Y613247D01*
X616100Y602140D02*
Y613140D01*
X640600Y705220D02*
X642100D01*
X640600Y719720D02*
X642100D01*
X630178Y731008D02*
X644902D01*
X630178Y744732D02*
X644902D01*
X618040Y725930D02*
X619290D01*
X592290D02*
X593540D01*
X592290Y693930D02*
Y725930D01*
X618040Y693930D02*
X619290D01*
X592290D02*
X593540D01*
X619290D02*
Y725930D01*
X504190Y737230D02*
X529590D01*
Y581030D02*
Y737230D01*
X504190Y581030D02*
X529590D01*
X504190D02*
Y737230D01*
X624720Y475060D02*
Y485060D01*
X609720Y475060D02*
Y485060D01*
X864519Y582909D02*
Y615971D01*
X888081Y582909D02*
Y615971D01*
X577970Y602060D02*
Y612060D01*
X592970Y602060D02*
Y612060D01*
X646550Y602060D02*
Y612060D01*
X661550Y602060D02*
Y612060D01*
X933080Y456450D02*
Y457950D01*
X918580Y456450D02*
Y457950D01*
X1045890Y445680D02*
X1055890Y435680D01*
X1056000Y435850D02*
X1063000Y442850D01*
X1053000Y452850D02*
X1063000Y442850D01*
X883569Y438129D02*
Y471191D01*
X907131Y438129D02*
Y471191D01*
X973570Y698430D02*
X983570Y688430D01*
X966460Y691260D02*
X973460Y698260D01*
X966460Y691260D02*
X976460Y681260D01*
D14*
X489502Y594020D02*
X488444Y592962D01*
Y590846D01*
X489502Y589788D01*
X493734D01*
X494792Y590846D01*
Y592962D01*
X493734Y594020D01*
X491618D01*
Y591904D01*
X494792Y596136D02*
X488444D01*
X494792Y600368D01*
X488444D01*
Y602484D02*
X494792D01*
Y605658D01*
X493734Y606716D01*
X489502D01*
X488444Y605658D01*
Y602484D01*
Y615180D02*
X494792Y619412D01*
X488444D02*
X494792Y615180D01*
X488444Y621528D02*
X494792Y625760D01*
X488444D02*
X494792Y621528D01*
Y634224D02*
X488444D01*
X490560Y636340D01*
X488444Y638456D01*
X494792D01*
X489502Y644803D02*
X488444Y643745D01*
Y641629D01*
X489502Y640572D01*
X493734D01*
X494792Y641629D01*
Y643745D01*
X493734Y644803D01*
X488444Y646919D02*
X494792D01*
Y651152D01*
Y653267D02*
X488444D01*
Y656441D01*
X489502Y657499D01*
X491618D01*
X492676Y656441D01*
Y653267D01*
Y655383D02*
X494792Y657499D01*
Y665963D02*
X488444D01*
Y669137D01*
X489502Y670195D01*
X491618D01*
X492676Y669137D01*
Y665963D01*
X489502Y676543D02*
X488444Y675485D01*
Y673369D01*
X489502Y672311D01*
X493734D01*
X494792Y673369D01*
Y675485D01*
X493734Y676543D01*
X491618D01*
Y674427D01*
X489502Y682891D02*
X488444Y681833D01*
Y679717D01*
X489502Y678659D01*
X493734D01*
X494792Y679717D01*
Y681833D01*
X493734Y682891D01*
X494792Y691355D02*
X488444D01*
Y694529D01*
X489502Y695587D01*
X491618D01*
X492676Y694529D01*
Y691355D01*
X489502Y701935D02*
X488444Y700877D01*
Y698761D01*
X489502Y697703D01*
X493734D01*
X494792Y698761D01*
Y700877D01*
X493734Y701935D01*
X491618D01*
Y699819D01*
X488444Y704051D02*
X494792D01*
Y707225D01*
X493734Y708283D01*
X489502D01*
X488444Y707225D01*
Y704051D01*
X489502Y716747D02*
X488444Y717805D01*
Y719921D01*
X489502Y720979D01*
X490560D01*
X491618Y719921D01*
Y718863D01*
Y719921D01*
X492676Y720979D01*
X493734D01*
X494792Y719921D01*
Y717805D01*
X493734Y716747D01*
X488444Y723095D02*
X492676D01*
X494792Y725211D01*
X492676Y727327D01*
X488444D01*
X489502Y729443D02*
X488444Y730501D01*
Y732617D01*
X489502Y733675D01*
X490560D01*
X491618Y732617D01*
Y731559D01*
Y732617D01*
X492676Y733675D01*
X493734D01*
X494792Y732617D01*
Y730501D01*
X493734Y729443D01*
X485692Y416220D02*
X484634Y415162D01*
Y413046D01*
X485692Y411988D01*
X489924D01*
X490982Y413046D01*
Y415162D01*
X489924Y416220D01*
X487808D01*
Y414104D01*
X490982Y418336D02*
X484634D01*
X490982Y422568D01*
X484634D01*
Y424684D02*
X490982D01*
Y427858D01*
X489924Y428916D01*
X485692D01*
X484634Y427858D01*
Y424684D01*
Y467004D02*
Y462771D01*
X490982D01*
Y467004D01*
X487808Y462771D02*
Y464888D01*
X485692Y473352D02*
X484634Y472294D01*
Y470177D01*
X485692Y469119D01*
X486750D01*
X487808Y470177D01*
Y472294D01*
X488866Y473352D01*
X489924D01*
X490982Y472294D01*
Y470177D01*
X489924Y469119D01*
X484634Y475467D02*
X490982D01*
Y478641D01*
X489924Y479699D01*
X488866D01*
X487808Y478641D01*
Y475467D01*
Y478641D01*
X486750Y479699D01*
X485692D01*
X484634Y478641D01*
Y475467D01*
Y517787D02*
Y513555D01*
X490982D01*
Y517787D01*
X487808Y513555D02*
Y515671D01*
X485692Y524135D02*
X484634Y523077D01*
Y520961D01*
X485692Y519903D01*
X486750D01*
X487808Y520961D01*
Y523077D01*
X488866Y524135D01*
X489924D01*
X490982Y523077D01*
Y520961D01*
X489924Y519903D01*
X490982Y526251D02*
X486750D01*
X484634Y528367D01*
X486750Y530483D01*
X490982D01*
X487808D01*
Y526251D01*
X507660Y386586D02*
X503428D01*
Y380238D01*
X507660D01*
X503428Y383412D02*
X505544D01*
X509776Y384470D02*
X514008Y380238D01*
X511892Y382354D01*
X514008Y384470D01*
X509776Y380238D01*
X517182Y385528D02*
Y384470D01*
X516124D01*
X518240D01*
X517182D01*
Y381296D01*
X518240Y380238D01*
X524588D02*
X522472D01*
X521414Y381296D01*
Y383412D01*
X522472Y384470D01*
X524588D01*
X525646Y383412D01*
Y382354D01*
X521414D01*
X527762Y384470D02*
Y380238D01*
Y382354D01*
X528820Y383412D01*
X529878Y384470D01*
X530936D01*
X534110Y380238D02*
X536226D01*
X535168D01*
Y384470D01*
X534110D01*
X540458Y380238D02*
X542574D01*
X543632Y381296D01*
Y383412D01*
X542574Y384470D01*
X540458D01*
X539400Y383412D01*
Y381296D01*
X540458Y380238D01*
X545748Y384470D02*
Y380238D01*
Y382354D01*
X546806Y383412D01*
X547864Y384470D01*
X548922D01*
X562676Y385528D02*
X561618Y386586D01*
X559501D01*
X558443Y385528D01*
Y384470D01*
X559501Y383412D01*
X561618D01*
X562676Y382354D01*
Y381296D01*
X561618Y380238D01*
X559501D01*
X558443Y381296D01*
X567965Y380238D02*
X565849D01*
X564791Y381296D01*
Y383412D01*
X565849Y384470D01*
X567965D01*
X569023Y383412D01*
Y382354D01*
X564791D01*
X571139Y380238D02*
Y384470D01*
X574313D01*
X575371Y383412D01*
Y380238D01*
X577487D02*
X580661D01*
X581719Y381296D01*
X580661Y382354D01*
X578545D01*
X577487Y383412D01*
X578545Y384470D01*
X581719D01*
X584893Y380238D02*
X587009D01*
X588067Y381296D01*
Y383412D01*
X587009Y384470D01*
X584893D01*
X583835Y383412D01*
Y381296D01*
X584893Y380238D01*
X590183Y384470D02*
Y380238D01*
Y382354D01*
X591241Y383412D01*
X592299Y384470D01*
X593357D01*
X734568Y742186D02*
X736261D01*
X735414D01*
Y737108D01*
X734568D01*
X736261D01*
X738800D02*
Y740494D01*
X741339D01*
X742186Y739647D01*
Y737108D01*
X744725Y741340D02*
Y740494D01*
X743878D01*
X745571D01*
X744725D01*
Y737954D01*
X745571Y737108D01*
X750649D02*
X748957D01*
X748110Y737954D01*
Y739647D01*
X748957Y740494D01*
X750649D01*
X751496Y739647D01*
Y738801D01*
X748110D01*
X753189Y740494D02*
Y737108D01*
Y738801D01*
X754035Y739647D01*
X754881Y740494D01*
X755728D01*
X758267Y737108D02*
X759960D01*
X759113D01*
Y740494D01*
X758267D01*
X763345Y737108D02*
X765038D01*
X765884Y737954D01*
Y739647D01*
X765038Y740494D01*
X763345D01*
X762499Y739647D01*
Y737954D01*
X763345Y737108D01*
X767577Y740494D02*
Y737108D01*
Y738801D01*
X768424Y739647D01*
X769270Y740494D01*
X770117D01*
X781120Y741340D02*
X780273Y742186D01*
X778580D01*
X777734Y741340D01*
Y740494D01*
X778580Y739647D01*
X780273D01*
X781120Y738801D01*
Y737954D01*
X780273Y737108D01*
X778580D01*
X777734Y737954D01*
X785351Y737108D02*
X783659D01*
X782812Y737954D01*
Y739647D01*
X783659Y740494D01*
X785351D01*
X786198Y739647D01*
Y738801D01*
X782812D01*
X787891Y737108D02*
Y740494D01*
X790430D01*
X791276Y739647D01*
Y737108D01*
X792969D02*
X795508D01*
X796355Y737954D01*
X795508Y738801D01*
X793816D01*
X792969Y739647D01*
X793816Y740494D01*
X796355D01*
X798894Y737108D02*
X800587D01*
X801433Y737954D01*
Y739647D01*
X800587Y740494D01*
X798894D01*
X798047Y739647D01*
Y737954D01*
X798894Y737108D01*
X803126Y740494D02*
Y737108D01*
Y738801D01*
X803972Y739647D01*
X804818Y740494D01*
X805665D01*
X735838Y754888D02*
Y762505D01*
X739647D01*
X740916Y761236D01*
Y758697D01*
X739647Y757427D01*
X735838D01*
X738377D02*
X740916Y754888D01*
X744725D02*
X747264D01*
X748534Y756158D01*
Y758697D01*
X747264Y759966D01*
X744725D01*
X743456Y758697D01*
Y756158D01*
X744725Y754888D01*
X751073D02*
Y759966D01*
X752343D01*
X753612Y758697D01*
Y754888D01*
Y758697D01*
X754882Y759966D01*
X756151Y758697D01*
Y754888D01*
X758691D02*
X761230D01*
X759960D01*
Y759966D01*
X758691D01*
X777734Y761236D02*
X776465Y762505D01*
X773926D01*
X772656Y761236D01*
Y756158D01*
X773926Y754888D01*
X776465D01*
X777734Y756158D01*
Y758697D01*
X775195D01*
X780274Y754888D02*
X782813D01*
X781543D01*
Y759966D01*
X780274D01*
X786622Y754888D02*
X789161D01*
X787891D01*
Y762505D01*
X786622D01*
X794239Y759966D02*
X796778D01*
X798048Y758697D01*
Y754888D01*
X794239D01*
X792970Y756158D01*
X794239Y757427D01*
X798048D01*
X801857Y761236D02*
Y759966D01*
X800587D01*
X803126D01*
X801857D01*
Y756158D01*
X803126Y754888D01*
X966216Y715007D02*
Y708660D01*
X967486Y707390D01*
X970025D01*
X971294Y708660D01*
Y715007D01*
X977642Y707390D02*
Y715007D01*
X973833Y711199D01*
X978912D01*
X638556Y523745D02*
Y517398D01*
X639826Y516128D01*
X642365D01*
X643634Y517398D01*
Y523745D01*
X646173Y522476D02*
X647443Y523745D01*
X649982D01*
X651252Y522476D01*
Y521206D01*
X649982Y519937D01*
X648713D01*
X649982D01*
X651252Y518667D01*
Y517398D01*
X649982Y516128D01*
X647443D01*
X646173Y517398D01*
X968756Y546097D02*
Y539750D01*
X970026Y538480D01*
X972565D01*
X973834Y539750D01*
Y546097D01*
X981452Y538480D02*
X976374D01*
X981452Y543558D01*
Y544828D01*
X980182Y546097D01*
X977643D01*
X976374Y544828D01*
X733552Y718564D02*
Y712216D01*
X734822Y710946D01*
X737361D01*
X738630Y712216D01*
Y718564D01*
X741170Y710946D02*
X743709D01*
X742439D01*
Y718564D01*
X741170Y717294D01*
X597152Y746250D02*
X595883Y747520D01*
X593344D01*
X592074Y746250D01*
Y744980D01*
X593344Y743711D01*
X595883D01*
X597152Y742441D01*
Y741172D01*
X595883Y739902D01*
X593344D01*
X592074Y741172D01*
X599692Y747520D02*
Y739902D01*
X602231Y742441D01*
X604770Y739902D01*
Y747520D01*
X607309Y739902D02*
X609848D01*
X608579D01*
Y747520D01*
X607309Y746250D01*
X577088Y633730D02*
Y641348D01*
X580897D01*
X582166Y640078D01*
Y637539D01*
X580897Y636269D01*
X577088D01*
X579627D02*
X582166Y633730D01*
X588514D02*
Y641348D01*
X584706Y637539D01*
X589784D01*
X645668Y633730D02*
Y641348D01*
X649477D01*
X650746Y640078D01*
Y637539D01*
X649477Y636269D01*
X645668D01*
X648207D02*
X650746Y633730D01*
X653286Y640078D02*
X654555Y641348D01*
X657094D01*
X658364Y640078D01*
Y638808D01*
X657094Y637539D01*
X655825D01*
X657094D01*
X658364Y636269D01*
Y635000D01*
X657094Y633730D01*
X654555D01*
X653286Y635000D01*
X608838Y506730D02*
Y514347D01*
X612647D01*
X613916Y513078D01*
Y510539D01*
X612647Y509269D01*
X608838D01*
X611377D02*
X613916Y506730D01*
X621534D02*
X616455D01*
X621534Y511808D01*
Y513078D01*
X620264Y514347D01*
X617725D01*
X616455Y513078D01*
X631192Y749301D02*
Y756919D01*
X635000D01*
X636270Y755649D01*
Y753110D01*
X635000Y751840D01*
X631192D01*
X633731D02*
X636270Y749301D01*
X638809D02*
X641348D01*
X640079D01*
Y756919D01*
X638809Y755649D01*
X503428Y746506D02*
Y754124D01*
X507237D01*
X508506Y752854D01*
Y750315D01*
X507237Y749045D01*
X503428D01*
X511045Y746506D02*
X513585D01*
X512315D01*
Y754124D01*
X511045Y752854D01*
X485140Y554989D02*
X482601D01*
X483870D01*
Y548641D01*
X482601Y547371D01*
X481331D01*
X480062Y548641D01*
X487679Y547371D02*
X490218D01*
X488949D01*
Y554989D01*
X487679Y553719D01*
X628652Y585469D02*
Y577851D01*
X632460D01*
X633730Y579121D01*
Y584199D01*
X632460Y585469D01*
X628652D01*
X636269Y577851D02*
X638808D01*
X637539D01*
Y585469D01*
X636269Y584199D01*
X908049Y657224D02*
X909319Y658493D01*
Y661032D01*
X908049Y662302D01*
X902971D01*
X901701Y661032D01*
Y658493D01*
X902971Y657224D01*
X901701Y654684D02*
Y652145D01*
Y653415D01*
X909319D01*
X908049Y654684D01*
Y648336D02*
X909319Y647067D01*
Y644528D01*
X908049Y643258D01*
X902971D01*
X901701Y644528D01*
Y647067D01*
X902971Y648336D01*
X908049D01*
X958849Y684530D02*
X960119Y685799D01*
Y688338D01*
X958849Y689608D01*
X953771D01*
X952501Y688338D01*
Y685799D01*
X953771Y684530D01*
Y681990D02*
X952501Y680721D01*
Y678182D01*
X953771Y676912D01*
X958849D01*
X960119Y678182D01*
Y680721D01*
X958849Y681990D01*
X957579D01*
X956310Y680721D01*
Y676912D01*
X627381Y433070D02*
X626111Y431801D01*
Y429262D01*
X627381Y427992D01*
X632459D01*
X633729Y429262D01*
Y431801D01*
X632459Y433070D01*
X627381Y435610D02*
X626111Y436879D01*
Y439418D01*
X627381Y440688D01*
X628650D01*
X629920Y439418D01*
X631189Y440688D01*
X632459D01*
X633729Y439418D01*
Y436879D01*
X632459Y435610D01*
X631189D01*
X629920Y436879D01*
X628650Y435610D01*
X627381D01*
X629920Y436879D02*
Y439418D01*
X725289Y439420D02*
X724019Y438151D01*
Y435612D01*
X725289Y434342D01*
X730367D01*
X731637Y435612D01*
Y438151D01*
X730367Y439420D01*
X724019Y441960D02*
Y447038D01*
X725289D01*
X730367Y441960D01*
X731637D01*
X921256Y487424D02*
X919987Y488694D01*
X917448D01*
X916178Y487424D01*
Y482346D01*
X917448Y481076D01*
X919987D01*
X921256Y482346D01*
X928874Y488694D02*
X926335Y487424D01*
X923795Y484885D01*
Y482346D01*
X925065Y481076D01*
X927604D01*
X928874Y482346D01*
Y483615D01*
X927604Y484885D01*
X923795D01*
X888490Y490472D02*
X887221Y491741D01*
X884682D01*
X883412Y490472D01*
Y485394D01*
X884682Y484124D01*
X887221D01*
X888490Y485394D01*
X896108Y491741D02*
X891030D01*
Y487933D01*
X893569Y489202D01*
X894838D01*
X896108Y487933D01*
Y485394D01*
X894838Y484124D01*
X892299D01*
X891030Y485394D01*
X844550Y488949D02*
X843281Y490219D01*
X840742D01*
X839472Y488949D01*
Y483871D01*
X840742Y482601D01*
X843281D01*
X844550Y483871D01*
X850898Y482601D02*
Y490219D01*
X847090Y486410D01*
X852168D01*
X769620Y450849D02*
X768351Y452119D01*
X765812D01*
X764542Y450849D01*
Y445771D01*
X765812Y444501D01*
X768351D01*
X769620Y445771D01*
X772160Y450849D02*
X773429Y452119D01*
X775968D01*
X777238Y450849D01*
Y449580D01*
X775968Y448310D01*
X774699D01*
X775968D01*
X777238Y447040D01*
Y445771D01*
X775968Y444501D01*
X773429D01*
X772160Y445771D01*
X869440Y635252D02*
X868171Y636521D01*
X865632D01*
X864362Y635252D01*
Y630174D01*
X865632Y628904D01*
X868171D01*
X869440Y630174D01*
X877058Y628904D02*
X871980D01*
X877058Y633982D01*
Y635252D01*
X875788Y636521D01*
X873249D01*
X871980Y635252D01*
X665480Y701039D02*
X664210Y702309D01*
X661671D01*
X660402Y701039D01*
Y695961D01*
X661671Y694691D01*
X664210D01*
X665480Y695961D01*
X668019Y694691D02*
X670558D01*
X669289D01*
Y702309D01*
X668019Y701039D01*
D15*
X599440Y635000D02*
Y638809D01*
X601344D01*
X601979Y638174D01*
Y636904D01*
X601344Y636270D01*
X599440D01*
X603884Y635000D02*
X605153D01*
X605788Y635635D01*
Y636904D01*
X605153Y637539D01*
X603884D01*
X603249Y636904D01*
Y635635D01*
X603884Y635000D01*
X607058Y637539D02*
Y635635D01*
X607692Y635000D01*
X608327Y635635D01*
X608962Y635000D01*
X609597Y635635D01*
Y637539D01*
X612771Y635000D02*
X611501D01*
X610866Y635635D01*
Y636904D01*
X611501Y637539D01*
X612771D01*
X613405Y636904D01*
Y636270D01*
X610866D01*
X614675Y637539D02*
Y635000D01*
Y636270D01*
X615310Y636904D01*
X615945Y637539D01*
X616580D01*
X622293Y638809D02*
Y635000D01*
X624832D01*
X628641Y638809D02*
X626101D01*
Y635000D01*
X628641D01*
X626101Y636904D02*
X627371D01*
X629910Y638809D02*
Y635000D01*
X631815D01*
X632449Y635635D01*
Y638174D01*
X631815Y638809D01*
X629910D01*
M02*
