G04*
G04 #@! TF.GenerationSoftware,Altium Limited,Altium Designer,24.9.1 (31)*
G04*
G04 Layer_Physical_Order=1*
G04 Layer_Color=255*
%FSLAX44Y44*%
%MOMM*%
G71*
G04*
G04 #@! TF.SameCoordinates,75EA1287-3778-4008-B1FA-0AB461243C17*
G04*
G04*
G04 #@! TF.FilePolarity,Positive*
G04*
G01*
G75*
%ADD16R,0.9500X1.4000*%
%ADD17R,1.5562X1.5046*%
%ADD18R,1.5046X1.5562*%
%ADD19O,2.6000X0.7000*%
G04:AMPARAMS|DCode=20|XSize=2.1692mm|YSize=0.5821mm|CornerRadius=0.2911mm|HoleSize=0mm|Usage=FLASHONLY|Rotation=180.000|XOffset=0mm|YOffset=0mm|HoleType=Round|Shape=RoundedRectangle|*
%AMROUNDEDRECTD20*
21,1,2.1692,0.0000,0,0,180.0*
21,1,1.5870,0.5821,0,0,180.0*
1,1,0.5821,-0.7935,0.0000*
1,1,0.5821,0.7935,0.0000*
1,1,0.5821,0.7935,0.0000*
1,1,0.5821,-0.7935,0.0000*
%
%ADD20ROUNDEDRECTD20*%
%ADD21R,2.1692X0.5821*%
%ADD22R,0.5000X0.7000*%
%ADD23R,0.5654X0.5725*%
%ADD24R,1.7000X0.8000*%
%ADD25R,1.7000X0.9500*%
%ADD26R,1.4000X0.9500*%
%ADD34C,1.1500*%
%ADD35R,1.1500X1.1500*%
%ADD36C,0.2540*%
%ADD37R,7.6200X7.6200*%
%ADD38C,1.9500*%
G04:AMPARAMS|DCode=39|XSize=1.95mm|YSize=1.95mm|CornerRadius=0.4875mm|HoleSize=0mm|Usage=FLASHONLY|Rotation=270.000|XOffset=0mm|YOffset=0mm|HoleType=Round|Shape=RoundedRectangle|*
%AMROUNDEDRECTD39*
21,1,1.9500,0.9750,0,0,270.0*
21,1,0.9750,1.9500,0,0,270.0*
1,1,0.9750,-0.4875,-0.4875*
1,1,0.9750,-0.4875,0.4875*
1,1,0.9750,0.4875,0.4875*
1,1,0.9750,0.4875,-0.4875*
%
%ADD39ROUNDEDRECTD39*%
%ADD40R,1.5500X1.5500*%
%ADD41C,1.5500*%
%ADD42C,0.8890*%
D16*
X809900Y482600D02*
D03*
X828400D02*
D03*
X920390Y652780D02*
D03*
X938890D02*
D03*
X663300Y436880D02*
D03*
X644800D02*
D03*
X650600Y712470D02*
D03*
X632100D02*
D03*
D17*
X784860Y469782D02*
D03*
Y487798D02*
D03*
X876300Y608448D02*
D03*
Y590432D02*
D03*
X895350Y463668D02*
D03*
Y445652D02*
D03*
D18*
X919362Y683260D02*
D03*
X937378D02*
D03*
X688222Y435610D02*
D03*
X706238D02*
D03*
D19*
X842010Y525780D02*
D03*
Y538480D02*
D03*
Y551180D02*
D03*
Y563880D02*
D03*
Y576580D02*
D03*
Y589280D02*
D03*
Y601980D02*
D03*
Y614680D02*
D03*
Y627380D02*
D03*
Y640080D02*
D03*
Y652780D02*
D03*
Y665480D02*
D03*
Y678180D02*
D03*
Y690880D02*
D03*
X750010Y525780D02*
D03*
Y538480D02*
D03*
Y551180D02*
D03*
Y563880D02*
D03*
Y576580D02*
D03*
Y589280D02*
D03*
Y601980D02*
D03*
Y614680D02*
D03*
Y627380D02*
D03*
Y640080D02*
D03*
Y652780D02*
D03*
Y665480D02*
D03*
Y678180D02*
D03*
Y690880D02*
D03*
D20*
X651228Y462280D02*
D03*
Y474980D02*
D03*
Y487680D02*
D03*
Y500380D02*
D03*
X698500D02*
D03*
Y487680D02*
D03*
Y474980D02*
D03*
D21*
Y462280D02*
D03*
D22*
X631600Y612830D02*
D03*
Y603830D02*
D03*
X609600Y603140D02*
D03*
Y612140D02*
D03*
D23*
X633004Y737870D02*
D03*
X642076D02*
D03*
D24*
X605790Y692930D02*
D03*
Y726930D02*
D03*
D25*
X617220Y493810D02*
D03*
Y466310D02*
D03*
X585470Y593310D02*
D03*
Y620810D02*
D03*
X654050Y593310D02*
D03*
Y620810D02*
D03*
D26*
X925830Y466450D02*
D03*
Y447950D02*
D03*
D34*
X1016000Y508000D02*
D03*
X990600Y482600D02*
D03*
X1013460Y626110D02*
D03*
X1038860Y651510D02*
D03*
D35*
X1041400Y482600D02*
D03*
X988060Y651510D02*
D03*
D36*
X925830Y447040D02*
X1016000D01*
X868680Y440690D02*
X875030Y447040D01*
X925830D01*
X1016000D02*
X1041400Y472440D01*
Y482600D01*
X873760Y464820D02*
X943610D01*
X961390Y482600D01*
X990600D01*
X937378Y654292D02*
Y703698D01*
X943610Y709930D01*
X940160Y651510D02*
X988060D01*
X937378Y654292D02*
X940160Y651510D01*
X919362Y683260D02*
Y711200D01*
Y653808D02*
Y683260D01*
X920390Y652780D02*
X936900Y636270D01*
X919362Y653808D02*
X920390Y652780D01*
X819640Y575800D02*
X853440D01*
X828040Y462280D02*
Y485920D01*
X579120Y726440D02*
X606570D01*
X648970Y501160D02*
X670070D01*
X1023620Y636270D02*
X1038860Y651510D01*
X936900Y636270D02*
X1023620D01*
X876300Y608448D02*
X890687D01*
X890860Y608275D02*
X901645D01*
X901700Y608330D01*
X890687Y608448D02*
X890860Y608275D01*
X843162Y590432D02*
X876300D01*
X750010Y601980D02*
X753110D01*
X725170D02*
X750010D01*
X758190Y490220D02*
X760612Y487798D01*
X784860D01*
X760730Y469900D02*
X783100D01*
X783590Y470390D01*
X809770Y460230D02*
Y486410D01*
Y460230D02*
X810260Y459740D01*
X746760Y680720D02*
X778510D01*
X750010Y665480D02*
X778510D01*
X842010Y538480D02*
X872490D01*
X846797Y690027D02*
X865287D01*
X872490Y697230D01*
X708660Y412750D02*
Y433070D01*
X688222Y412868D02*
Y435610D01*
X663300Y415650D02*
Y436880D01*
X644800Y414380D02*
Y436880D01*
X654050Y620810D02*
X677130D01*
X678180Y619760D01*
X819150Y575310D02*
X819640Y575800D01*
X753110Y563880D02*
X779780D01*
X845110Y678180D02*
X875030D01*
X516890Y671830D02*
X542290D01*
X590550Y690880D02*
X754100D01*
X650600Y712470D02*
X667572D01*
X668842Y713740D02*
X670560D01*
X667572Y712470D02*
X668842Y713740D01*
X642076Y737870D02*
X659130D01*
X516890Y697230D02*
X542290D01*
X547370Y647700D02*
X590550Y690880D01*
X515620Y646430D02*
X516890Y647700D01*
X547370D01*
X607060Y692930D02*
Y698500D01*
X621030Y712470D01*
X628650D01*
X634274Y718094D01*
Y734060D01*
X585470Y593310D02*
Y601980D01*
X595630Y612140D01*
X609600D01*
Y582930D02*
Y603140D01*
X631190Y614100D02*
Y627380D01*
X635000Y631190D01*
X721360D01*
X725170Y627380D01*
X754100D01*
X656590Y593310D02*
X656810Y593090D01*
X631190Y601980D02*
Y605100D01*
Y601980D02*
X640080Y593090D01*
X656370D01*
X567910Y620810D02*
X585470D01*
X660400Y532130D02*
X727710D01*
X609600Y582930D02*
X660400Y532130D01*
X736600Y525780D02*
X754380D01*
X700546Y462280D02*
X715010D01*
X700546Y474980D02*
Y487680D01*
X680720D02*
X700546D01*
X730250Y477520D02*
Y519430D01*
X736600Y525780D01*
X715010Y462280D02*
X730250Y477520D01*
X703580Y501896D02*
Y515620D01*
X702064Y500380D02*
X703580Y501896D01*
X700546Y500380D02*
X702064D01*
X778147Y543560D02*
X778510D01*
X745490Y539260D02*
X773847D01*
X778147Y543560D01*
X541100Y524982D02*
X571028D01*
X603250Y492760D01*
X629920D01*
X635000Y487680D01*
X656590D01*
X541100Y474982D02*
X586738D01*
X594360Y467360D01*
X628650D01*
X636270Y474980D01*
X653274D01*
X670070Y501160D02*
X670560Y501650D01*
X650730Y462280D02*
X671830D01*
X727710Y654050D02*
X753110D01*
X728980Y638810D02*
X753110D01*
X754380Y614680D02*
X775970D01*
X955040Y505460D02*
X1008495D01*
X1011035Y508000D01*
X1013460D01*
D37*
X431800Y756920D02*
D03*
X431800Y384810D02*
D03*
X1026160Y756920D02*
D03*
X1026160Y384810D02*
D03*
D38*
X537130Y426248D02*
D03*
Y476247D02*
D03*
D39*
Y526247D02*
D03*
D40*
X516890Y595630D02*
D03*
D41*
Y621030D02*
D03*
Y646430D02*
D03*
Y671830D02*
D03*
Y697230D02*
D03*
Y722630D02*
D03*
D42*
X760730Y491490D02*
D03*
X868680Y440690D02*
D03*
X873760Y464820D02*
D03*
X943610Y709930D02*
D03*
X919480Y711200D02*
D03*
X901700Y608330D02*
D03*
X760730Y469900D02*
D03*
X810260Y459740D02*
D03*
X778510Y680720D02*
D03*
X708660Y412750D02*
D03*
X688222Y412868D02*
D03*
X663300Y415650D02*
D03*
X644800Y414380D02*
D03*
X778510Y563880D02*
D03*
X678180Y619760D02*
D03*
X819150Y575310D02*
D03*
X778510Y665480D02*
D03*
X567910Y620810D02*
D03*
X725170Y601980D02*
D03*
X875030Y678180D02*
D03*
X872490Y697230D02*
D03*
X542290Y671830D02*
D03*
X670560Y713740D02*
D03*
X659130Y737870D02*
D03*
X542290Y697230D02*
D03*
X872490Y538480D02*
D03*
X680720Y487680D02*
D03*
X775970Y614680D02*
D03*
X727710Y532130D02*
D03*
X703580Y515620D02*
D03*
X778510Y543560D02*
D03*
X828040Y462280D02*
D03*
X670560Y501650D02*
D03*
X672320Y462770D02*
D03*
X727710Y654050D02*
D03*
X728980Y638810D02*
D03*
X579120Y726440D02*
D03*
X955040Y505460D02*
D03*
M02*
